<?xml version="1.0" encoding="UTF-8"?><svg enable-background="new 0 0 90.709 90.7085" height="90.7085px" version="1.1" viewBox="0 0 90.709 90.7085" width="90.709px" x="0px" xml:space="preserve" xmlns="http://www.w3.org/2000/svg" xmlns:xlink="http://www.w3.org/1999/xlink" y="0px">
<g id="surface1">
<path d="M 35.101562 44.324219 L 34.074219 42.777344 C 35.792969 41.859375 37.050781 40.144531 36.878906 38.023438 C 34.761719 38.539062 33.558594 37.222656 33.558594 35.503906 C 33.558594 33.902344 34.761719 32.871094 36.363281 32.871094 C 38.308594 32.871094 39.742188 34.074219 39.742188 36.707031 C 39.742188 41.460938 36.707031 43.695312 35.101562 44.324219 M 40.65625 47.070312 C 43.757812 44.726562 43.652344 35.488281 44.40625 28.230469 L 27.449219 29.421875 L 27.449219 28.605469 L 10.507812 28.605469 L 10.507812 66.757812 L 27.449219 65.625 L 27.449219 66.449219 L 44.4375 66.449219 C 43.53125 58.339844 43.757812 49.636719 40.65625 47.070312 " style=" stroke:none;fill-rule:nonzero;fill:rgb(100%,100%,100%);fill-opacity:1;"/>
<path d="M 69.089844 40.691406 C 69.089844 37.277344 70.601562 35.046875 73.6875 35.046875 C 78.3125 35.046875 79.59375 38.035156 79.59375 42.101562 C 79.59375 42.660156 79.527344 43.351562 79.460938 43.941406 C 78.804688 45.125 76.640625 46.335938 74.40625 46.335938 C 70.566406 46.335938 69.089844 43.480469 69.089844 40.691406 M 66.726562 40.691406 C 66.726562 45.222656 69.15625 48.304688 74.144531 48.304688 C 76.34375 48.304688 78.179688 47.75 79.296875 46.140625 C 78.773438 52.539062 74.277344 55.425781 68.898438 54.378906 L 68.46875 56.445312 C 77.328125 57.988281 81.953125 52.113281 81.953125 42.265625 C 81.953125 36.226562 79.492188 33.078125 74.40625 33.078125 C 68.992188 33.078125 66.726562 36.523438 66.726562 40.691406 M 49.003906 41.675781 C 49.003906 37.246094 50.941406 35.046875 54.71875 35.046875 C 58.820312 35.046875 60.425781 38.230469 60.425781 41.675781 C 60.425781 46.105469 58.488281 48.304688 54.71875 48.304688 C 50.613281 48.304688 49.003906 45.125 49.003906 41.675781 M 46.644531 41.675781 C 46.644531 46.859375 49.203125 50.273438 54.71875 50.273438 C 59.902344 50.273438 62.789062 47.191406 62.789062 41.675781 C 62.789062 36.492188 60.230469 33.078125 54.71875 33.078125 C 49.527344 33.078125 46.644531 36.164062 46.644531 41.675781 " style=" stroke:none;fill-rule:nonzero;fill:rgb(100%,100%,100%);fill-opacity:1;"/>
</g>
</svg>