<?xml version="1.0" encoding="UTF-8"?><svg enable-background="new 0 0 90.7087 90.7087" height="90.7087px" version="1.1" viewBox="0 0 90.7087 90.7087" width="90.7087px" x="0px" xml:space="preserve" xmlns="http://www.w3.org/2000/svg" xmlns:xlink="http://www.w3.org/1999/xlink" y="0px">
<defs>
<clipPath id="clip1">
  <path d="M 76 39 L 90.707031 39 L 90.707031 56 L 76 56 Z "/>
</clipPath>
</defs>
<g id="surface1">
<path d="M 69.960938 53.730469 C 69.960938 55.191406 70.953125 56.328125 72.820312 56.328125 C 74.660156 56.328125 75.683594 55.164062 75.683594 53.671875 C 75.683594 52.183594 74.542969 51.074219 72.761719 51.074219 C 71.097656 51.074219 69.960938 52.242188 69.960938 53.730469 " style=" stroke:none;fill-rule:nonzero;fill:rgb(13.729858%,12.159729%,12.548828%);fill-opacity:1;"/>
<path d="M 25.550781 51.160156 C 25.550781 53.703125 25.578125 56.332031 29.84375 56.332031 C 31.246094 56.332031 32.558594 55.863281 33.257812 55.484375 C 33.492188 55.367188 33.492188 55.222656 33.460938 55.046875 L 32.964844 52.855469 C 32.9375 52.738281 32.910156 52.59375 32.675781 52.679688 C 32.410156 52.769531 32.148438 52.824219 31.886719 52.824219 C 31.332031 52.824219 31.183594 52.476562 31.183594 51.863281 L 31.183594 44.214844 L 34.046875 44.214844 L 34.046875 51.160156 C 34.046875 53.703125 34.078125 56.332031 38.339844 56.332031 C 39.742188 56.332031 41.171875 55.835938 41.753906 55.484375 C 41.988281 55.367188 41.988281 55.222656 41.960938 55.046875 L 41.464844 52.855469 C 41.433594 52.738281 41.40625 52.59375 41.171875 52.679688 C 40.851562 52.769531 40.644531 52.824219 40.382812 52.824219 C 39.828125 52.824219 39.683594 52.476562 39.683594 51.863281 L 39.683594 44.242188 L 42.132812 44.242188 C 42.425781 44.242188 42.574219 44.097656 42.574219 43.835938 L 42.574219 41.351562 C 42.574219 41.089844 42.425781 40.941406 42.132812 40.941406 L 39.683594 40.941406 L 39.683594 36.941406 C 39.683594 36.738281 39.59375 36.59375 39.332031 36.621094 L 34.457031 37.117188 C 34.191406 37.148438 34.046875 37.292969 34.046875 37.554688 L 34.046875 40.941406 L 31.183594 40.941406 L 31.183594 36.941406 C 31.183594 36.738281 31.097656 36.59375 30.835938 36.621094 L 25.960938 37.117188 C 25.695312 37.148438 25.550781 37.292969 25.550781 37.554688 Z " style=" stroke:none;fill-rule:nonzero;fill:rgb(13.729858%,12.159729%,12.548828%);fill-opacity:1;"/>
<g clip-path="url(#clip1)" clip-rule="nonzero">
<path d="M 90.253906 55.832031 C 90.515625 55.832031 90.660156 55.6875 90.660156 55.394531 L 90.660156 52.214844 C 90.660156 51.921875 90.515625 51.777344 90.253906 51.777344 L 84.324219 51.777344 L 86.136719 50.316406 C 88.910156 48.097656 90.164062 46.78125 90.164062 43.863281 C 90.164062 40.886719 87.652344 39.132812 82.980469 39.132812 C 80.0625 39.132812 77.550781 39.71875 76.910156 39.832031 C 76.5 39.921875 76.441406 40.210938 76.441406 40.476562 L 76.441406 45.089844 C 76.441406 45.378906 76.589844 45.527344 76.851562 45.527344 L 80.324219 45.527344 C 80.585938 45.527344 80.761719 45.410156 80.734375 45.089844 L 80.644531 42.957031 C 81.203125 42.839844 81.8125 42.78125 82.222656 42.78125 C 83.59375 42.78125 84.179688 43.542969 84.179688 44.621094 C 84.179688 46.023438 83.390625 46.898438 80.355469 49.789062 L 77.085938 52.914062 C 76.878906 53.089844 76.820312 53.175781 76.820312 53.410156 L 76.820312 55.394531 C 76.820312 55.6875 76.96875 55.832031 77.230469 55.832031 Z " style=" stroke:none;fill-rule:nonzero;fill:rgb(13.729858%,12.159729%,12.548828%);fill-opacity:1;"/>
</g>
<path d="M 68.382812 52.738281 L 65.140625 52.738281 L 65.140625 48.183594 C 65.140625 45.761719 65.726562 44.5625 66.863281 44.5625 C 67.011719 44.5625 67.332031 44.5625 67.476562 44.59375 L 67.359375 46.460938 C 67.332031 46.78125 67.507812 46.898438 67.769531 46.898438 L 71.246094 46.898438 C 71.507812 46.898438 71.652344 46.753906 71.652344 46.460938 L 71.652344 41.554688 C 71.652344 41.292969 71.59375 41 71.1875 40.914062 C 70.484375 40.769531 69.636719 40.710938 69.023438 40.710938 C 66.71875 40.710938 65.257812 42.082031 64.558594 43.394531 L 64.558594 41.382812 C 64.558594 41.089844 64.414062 40.941406 64.148438 40.941406 L 57.929688 40.941406 C 57.667969 40.941406 57.519531 41.089844 57.519531 41.382812 L 57.519531 43.804688 C 57.519531 44.097656 57.667969 44.242188 57.929688 44.242188 L 59.535156 44.242188 L 59.535156 52.738281 L 57.960938 52.738281 C 57.695312 52.738281 57.550781 52.886719 57.550781 53.175781 L 57.550781 55.394531 C 57.550781 55.6875 57.695312 55.832031 57.960938 55.832031 L 68.382812 55.832031 C 68.644531 55.832031 68.792969 55.6875 68.792969 55.394531 L 68.792969 53.175781 C 68.792969 52.886719 68.644531 52.738281 68.382812 52.738281 " style=" stroke:none;fill-rule:nonzero;fill:rgb(13.729858%,12.159729%,12.548828%);fill-opacity:1;"/>
<path d="M 0.5 36.59375 C 0.234375 36.59375 0.0898438 36.738281 0.0898438 37.03125 L 0.0898438 39.25 C 0.0898438 39.542969 0.234375 39.6875 0.5 39.6875 L 2.105469 39.6875 L 2.105469 52.738281 L 0.527344 52.738281 C 0.265625 52.738281 0.117188 52.886719 0.117188 53.175781 L 0.117188 55.394531 C 0.117188 55.6875 0.265625 55.832031 0.527344 55.832031 L 9.171875 55.832031 C 9.433594 55.832031 9.578125 55.6875 9.578125 55.394531 L 9.578125 53.175781 C 9.578125 52.886719 9.433594 52.738281 9.171875 52.738281 L 7.710938 52.738281 L 7.710938 37.03125 C 7.710938 36.738281 7.566406 36.59375 7.300781 36.59375 Z " style=" stroke:none;fill-rule:nonzero;fill:rgb(13.729858%,12.159729%,12.548828%);fill-opacity:1;"/>
<path d="M 56.9375 47.804688 C 56.9375 43.949219 55.476562 40.710938 50.191406 40.710938 C 44.9375 40.710938 42.398438 44.332031 42.398438 48.59375 C 42.398438 53.265625 44.644531 56.332031 50.136719 56.332031 C 52.878906 56.332031 54.921875 55.394531 56.121094 54.722656 C 56.382812 54.578125 56.355469 54.402344 56.238281 54.140625 L 55.390625 51.949219 C 55.304688 51.6875 55.214844 51.601562 54.921875 51.71875 C 53.230469 52.417969 52.292969 52.503906 51.417969 52.503906 C 49.40625 52.503906 48.382812 51.25 48.324219 49.585938 L 56.410156 49.585938 C 56.703125 49.585938 56.792969 49.527344 56.851562 49.292969 C 56.910156 49.058594 56.9375 48.15625 56.9375 47.804688 M 51.535156 46.988281 L 48.265625 46.988281 C 48.296875 45.117188 48.96875 44.183594 49.988281 44.183594 C 51.097656 44.183594 51.59375 45 51.535156 46.988281 " style=" stroke:none;fill-rule:nonzero;fill:rgb(13.729858%,12.159729%,12.548828%);fill-opacity:1;"/>
<path d="M 24.179688 47.804688 C 24.179688 43.949219 22.71875 40.710938 17.433594 40.710938 C 12.179688 40.710938 9.636719 44.332031 9.636719 48.59375 C 9.636719 53.265625 11.886719 56.332031 17.375 56.332031 C 20.121094 56.332031 22.164062 55.394531 23.359375 54.722656 C 23.625 54.578125 23.59375 54.402344 23.476562 54.140625 L 22.632812 51.949219 C 22.542969 51.6875 22.457031 51.601562 22.164062 51.71875 C 20.46875 52.417969 19.535156 52.503906 18.660156 52.503906 C 16.644531 52.503906 15.625 51.25 15.566406 49.585938 L 23.652344 49.585938 C 23.945312 49.585938 24.03125 49.527344 24.089844 49.292969 C 24.148438 49.058594 24.179688 48.15625 24.179688 47.804688 M 18.777344 46.988281 L 15.507812 46.988281 C 15.535156 45.117188 16.207031 44.183594 17.230469 44.183594 C 18.339844 44.183594 18.835938 45 18.777344 46.988281 " style=" stroke:none;fill-rule:nonzero;fill:rgb(13.729858%,12.159729%,12.548828%);fill-opacity:1;"/>
</g>
</svg>