<?xml version="1.0" encoding="UTF-8"?><svg enable-background="new 0 0 90.7087 90.7087" height="90.7087px" version="1.1" viewBox="0 0 90.7087 90.7087" width="90.7087px" x="0px" xml:space="preserve" xmlns="http://www.w3.org/2000/svg" xmlns:xlink="http://www.w3.org/1999/xlink" y="0px">
<defs>
<clipPath id="clip1">
  <path d="M 0 44 L 90.707031 44 L 90.707031 51 L 0 51 Z "/>
</clipPath>
<clipPath id="clip2">
  <path d="M 79 14 L 90.707031 14 L 90.707031 34 L 79 34 Z "/>
</clipPath>
</defs>
<g id="surface1">
<g clip-path="url(#clip1)" clip-rule="nonzero">
<path d="M 101.945312 47.367188 C 101.957031 47.058594 102.078125 46.644531 102.578125 46.644531 C 103.050781 46.644531 103.148438 47.019531 103.144531 47.367188 Z M 102.628906 49.148438 C 103.027344 49.148438 103.378906 49.046875 103.582031 48.941406 C 103.632812 48.910156 103.65625 48.882812 103.632812 48.824219 L 103.523438 48.558594 C 103.5 48.5 103.464844 48.484375 103.40625 48.511719 C 103.199219 48.605469 103.015625 48.664062 102.757812 48.664062 C 102.132812 48.664062 101.980469 48.28125 101.945312 47.792969 L 103.636719 47.792969 C 103.722656 47.792969 103.738281 47.769531 103.742188 47.699219 C 103.746094 47.628906 103.746094 47.554688 103.746094 47.503906 C 103.746094 46.882812 103.503906 46.160156 102.625 46.160156 C 101.71875 46.160156 101.304688 46.886719 101.304688 47.648438 C 101.304688 48.523438 101.671875 49.148438 102.628906 49.148438 M 100.59375 44.863281 C 100.59375 44.800781 100.566406 44.777344 100.507812 44.777344 L 99.636719 44.777344 C 99.574219 44.777344 99.550781 44.800781 99.550781 44.863281 L 99.550781 45.164062 C 99.550781 45.21875 99.578125 45.25 99.636719 45.25 L 99.949219 45.25 L 99.949219 48.621094 L 99.585938 48.621094 C 99.527344 48.621094 99.5 48.644531 99.5 48.707031 L 99.5 48.992188 C 99.5 49.046875 99.527344 49.078125 99.585938 49.078125 L 100.957031 49.078125 C 101.015625 49.078125 101.042969 49.054688 101.042969 48.992188 L 101.042969 48.707031 C 101.042969 48.652344 101.015625 48.621094 100.957031 48.621094 L 100.59375 48.621094 Z M 98.277344 48.207031 C 98.277344 48.425781 98.070312 48.675781 97.644531 48.675781 C 97.335938 48.675781 97.1875 48.546875 97.1875 48.277344 C 97.1875 47.769531 97.8125 47.769531 98.277344 47.765625 Z M 98.265625 47.367188 C 97.621094 47.375 96.578125 47.402344 96.578125 48.332031 C 96.578125 48.945312 96.992188 49.148438 97.429688 49.148438 C 97.839844 49.148438 98.121094 49.007812 98.328125 48.726562 L 98.371094 48.992188 C 98.375 49.046875 98.398438 49.078125 98.457031 49.078125 L 99.136719 49.078125 C 99.195312 49.078125 99.222656 49.054688 99.222656 48.992188 L 99.222656 48.707031 C 99.222656 48.652344 99.195312 48.621094 99.136719 48.621094 L 98.886719 48.621094 L 98.886719 47.105469 C 98.886719 46.597656 98.679688 46.160156 97.855469 46.160156 C 97.261719 46.160156 96.742188 46.363281 96.710938 46.984375 C 96.703125 47.042969 96.710938 47.058594 96.765625 47.058594 L 97.1875 47.058594 C 97.234375 47.058594 97.246094 47.054688 97.25 47.003906 C 97.273438 46.777344 97.402344 46.605469 97.765625 46.605469 C 98.21875 46.605469 98.265625 46.886719 98.265625 47.164062 Z M 93.039062 46.617188 C 93.039062 46.679688 93.0625 46.695312 93.125 46.695312 L 93.433594 46.695312 L 93.433594 48.621094 L 93.128906 48.621094 C 93.070312 48.621094 93.042969 48.644531 93.042969 48.707031 L 93.042969 48.992188 C 93.042969 49.046875 93.070312 49.078125 93.128906 49.078125 L 94.4375 49.078125 C 94.496094 49.078125 94.523438 49.054688 94.523438 48.992188 L 94.523438 48.707031 C 94.523438 48.652344 94.5 48.621094 94.4375 48.621094 L 94.082031 48.621094 L 94.082031 47.296875 C 94.082031 47.015625 94.363281 46.730469 94.726562 46.730469 C 95.179688 46.730469 95.222656 47.019531 95.222656 47.429688 L 95.222656 48.621094 L 94.945312 48.621094 C 94.886719 48.621094 94.859375 48.644531 94.859375 48.707031 L 94.859375 48.992188 C 94.859375 49.046875 94.886719 49.078125 94.945312 49.078125 L 96.203125 49.078125 C 96.257812 49.078125 96.289062 49.054688 96.289062 48.992188 L 96.289062 48.707031 C 96.289062 48.652344 96.257812 48.621094 96.203125 48.621094 L 95.867188 48.621094 L 95.867188 47.140625 C 95.867188 46.488281 95.554688 46.160156 94.972656 46.160156 C 94.632812 46.160156 94.289062 46.289062 94.050781 46.644531 L 94 46.3125 C 93.988281 46.253906 93.964844 46.222656 93.90625 46.222656 L 93.125 46.222656 C 93.0625 46.222656 93.039062 46.253906 93.039062 46.3125 Z M 91.355469 48.675781 C 90.777344 48.675781 90.679688 48.082031 90.679688 47.566406 C 90.679688 47.007812 90.863281 46.632812 91.34375 46.632812 C 91.835938 46.632812 92.015625 47.007812 92.015625 47.652344 C 92.015625 48.316406 91.828125 48.675781 91.355469 48.675781 M 90.027344 47.695312 C 90.027344 48.675781 90.519531 49.148438 91.300781 49.148438 C 92.070312 49.148438 92.691406 48.652344 92.691406 47.574219 C 92.691406 46.296875 91.84375 46.160156 91.394531 46.160156 C 90.839844 46.160156 90.027344 46.476562 90.027344 47.695312 M 88.449219 45.398438 C 88.449219 45.660156 88.660156 45.871094 88.921875 45.871094 C 89.179688 45.871094 89.398438 45.660156 89.398438 45.398438 C 89.398438 45.140625 89.179688 44.921875 88.921875 44.921875 C 88.660156 44.921875 88.449219 45.140625 88.449219 45.398438 M 89.320312 48.621094 L 89.679688 48.621094 C 89.738281 48.621094 89.769531 48.644531 89.769531 48.707031 L 89.769531 48.992188 C 89.769531 49.046875 89.738281 49.078125 89.679688 49.078125 L 88.308594 49.078125 C 88.253906 49.078125 88.222656 49.054688 88.222656 48.992188 L 88.222656 48.707031 C 88.222656 48.652344 88.253906 48.621094 88.308594 48.621094 L 88.671875 48.621094 L 88.671875 46.695312 L 88.363281 46.695312 C 88.304688 46.695312 88.277344 46.671875 88.277344 46.609375 L 88.277344 46.3125 C 88.277344 46.253906 88.304688 46.222656 88.363281 46.222656 L 89.234375 46.222656 C 89.296875 46.222656 89.320312 46.253906 89.320312 46.3125 Z M 87.152344 46.695312 L 87.734375 46.695312 C 87.792969 46.695312 87.820312 46.671875 87.820312 46.609375 L 87.820312 46.3125 C 87.820312 46.253906 87.792969 46.222656 87.734375 46.222656 L 87.152344 46.222656 L 87.152344 45.445312 C 87.152344 45.390625 87.121094 45.359375 87.066406 45.359375 L 86.589844 45.359375 C 86.527344 45.359375 86.503906 45.390625 86.503906 45.445312 L 86.503906 46.222656 L 86.175781 46.222656 C 86.121094 46.222656 86.089844 46.246094 86.089844 46.3125 L 86.089844 46.609375 C 86.089844 46.667969 86.121094 46.695312 86.175781 46.695312 L 86.503906 46.695312 L 86.503906 48.085938 C 86.503906 48.585938 86.503906 49.148438 87.335938 49.148438 C 87.554688 49.148438 87.832031 49.089844 87.992188 49.007812 C 88.042969 48.980469 88.066406 48.949219 88.042969 48.894531 L 87.941406 48.628906 C 87.917969 48.570312 87.894531 48.566406 87.847656 48.582031 C 87.746094 48.628906 87.648438 48.664062 87.496094 48.664062 C 87.199219 48.664062 87.152344 48.472656 87.152344 48.148438 Z M 84.988281 48.207031 C 84.988281 48.425781 84.78125 48.675781 84.355469 48.675781 C 84.050781 48.675781 83.898438 48.546875 83.898438 48.277344 C 83.898438 47.769531 84.523438 47.769531 84.988281 47.765625 Z M 84.976562 47.367188 C 84.332031 47.375 83.289062 47.402344 83.289062 48.332031 C 83.289062 48.945312 83.703125 49.148438 84.140625 49.148438 C 84.550781 49.148438 84.832031 49.007812 85.042969 48.726562 L 85.082031 48.992188 C 85.085938 49.046875 85.109375 49.078125 85.167969 49.078125 L 85.847656 49.078125 C 85.90625 49.078125 85.933594 49.054688 85.933594 48.992188 L 85.933594 48.707031 C 85.933594 48.652344 85.90625 48.621094 85.847656 48.621094 L 85.601562 48.621094 L 85.601562 47.105469 C 85.601562 46.597656 85.394531 46.160156 84.570312 46.160156 C 83.972656 46.160156 83.457031 46.363281 83.421875 46.984375 C 83.414062 47.042969 83.421875 47.058594 83.480469 47.058594 L 83.898438 47.058594 C 83.945312 47.058594 83.957031 47.054688 83.964844 47.003906 C 83.988281 46.777344 84.113281 46.605469 84.476562 46.605469 C 84.929688 46.605469 84.976562 46.886719 84.976562 47.164062 Z M 79.75 46.617188 C 79.75 46.679688 79.773438 46.695312 79.835938 46.695312 L 80.148438 46.695312 L 80.148438 48.621094 L 79.839844 48.621094 C 79.785156 48.621094 79.753906 48.644531 79.753906 48.707031 L 79.753906 48.992188 C 79.753906 49.046875 79.785156 49.078125 79.839844 49.078125 L 81.152344 49.078125 C 81.207031 49.078125 81.238281 49.054688 81.238281 48.992188 L 81.238281 48.707031 C 81.238281 48.652344 81.214844 48.621094 81.152344 48.621094 L 80.792969 48.621094 L 80.792969 47.296875 C 80.792969 47.015625 81.074219 46.730469 81.4375 46.730469 C 81.894531 46.730469 81.933594 47.019531 81.933594 47.429688 L 81.933594 48.621094 L 81.65625 48.621094 C 81.597656 48.621094 81.570312 48.644531 81.570312 48.707031 L 81.570312 48.992188 C 81.570312 49.046875 81.597656 49.078125 81.65625 49.078125 L 82.914062 49.078125 C 82.972656 49.078125 83 49.054688 83 48.992188 L 83 48.707031 C 83 48.652344 82.972656 48.621094 82.914062 48.621094 L 82.578125 48.621094 L 82.578125 47.140625 C 82.578125 46.488281 82.269531 46.160156 81.6875 46.160156 C 81.34375 46.160156 81 46.289062 80.761719 46.644531 L 80.710938 46.3125 C 80.699219 46.253906 80.675781 46.222656 80.621094 46.222656 L 79.835938 46.222656 C 79.773438 46.222656 79.75 46.253906 79.75 46.3125 Z M 79.039062 46.160156 C 78.625 46.160156 78.332031 46.445312 78.214844 46.71875 L 78.152344 46.3125 C 78.140625 46.253906 78.113281 46.222656 78.054688 46.222656 L 77.292969 46.222656 C 77.230469 46.222656 77.207031 46.246094 77.207031 46.3125 L 77.207031 46.609375 C 77.207031 46.667969 77.234375 46.695312 77.292969 46.695312 L 77.605469 46.695312 L 77.605469 48.621094 L 77.300781 48.621094 C 77.242188 48.621094 77.210938 48.644531 77.210938 48.707031 L 77.210938 48.992188 C 77.210938 49.046875 77.242188 49.078125 77.300781 49.078125 L 78.882812 49.078125 C 78.941406 49.078125 78.96875 49.054688 78.96875 48.992188 L 78.96875 48.707031 C 78.96875 48.652344 78.941406 48.621094 78.882812 48.621094 L 78.25 48.621094 L 78.25 47.542969 C 78.25 47.046875 78.515625 46.75 78.863281 46.75 C 78.890625 46.75 78.929688 46.75 78.960938 46.753906 L 78.9375 47.089844 C 78.929688 47.152344 78.960938 47.175781 79.019531 47.175781 L 79.390625 47.175781 C 79.449219 47.175781 79.480469 47.152344 79.480469 47.089844 L 79.480469 46.3125 C 79.480469 46.253906 79.472656 46.230469 79.410156 46.207031 C 79.359375 46.191406 79.167969 46.160156 79.039062 46.160156 M 75.085938 47.367188 C 75.097656 47.058594 75.21875 46.644531 75.71875 46.644531 C 76.191406 46.644531 76.289062 47.019531 76.285156 47.367188 Z M 75.773438 49.148438 C 76.167969 49.148438 76.519531 49.046875 76.722656 48.941406 C 76.773438 48.910156 76.796875 48.882812 76.773438 48.824219 L 76.664062 48.558594 C 76.640625 48.5 76.609375 48.484375 76.550781 48.511719 C 76.34375 48.605469 76.15625 48.664062 75.898438 48.664062 C 75.277344 48.664062 75.121094 48.28125 75.085938 47.792969 L 76.78125 47.792969 C 76.867188 47.792969 76.878906 47.769531 76.882812 47.699219 C 76.890625 47.628906 76.890625 47.554688 76.890625 47.503906 C 76.890625 46.882812 76.648438 46.160156 75.765625 46.160156 C 74.859375 46.160156 74.445312 46.886719 74.445312 47.648438 C 74.445312 48.523438 74.816406 49.148438 75.773438 49.148438 M 73.4375 46.695312 L 74.019531 46.695312 C 74.078125 46.695312 74.105469 46.671875 74.105469 46.609375 L 74.105469 46.3125 C 74.105469 46.253906 74.078125 46.222656 74.019531 46.222656 L 73.4375 46.222656 L 73.4375 45.445312 C 73.4375 45.390625 73.40625 45.359375 73.351562 45.359375 L 72.878906 45.359375 C 72.816406 45.359375 72.792969 45.390625 72.792969 45.445312 L 72.792969 46.222656 L 72.460938 46.222656 C 72.40625 46.222656 72.375 46.246094 72.375 46.3125 L 72.375 46.609375 C 72.375 46.667969 72.40625 46.695312 72.460938 46.695312 L 72.792969 46.695312 L 72.792969 48.085938 C 72.792969 48.585938 72.792969 49.148438 73.621094 49.148438 C 73.839844 49.148438 74.117188 49.089844 74.277344 49.007812 C 74.332031 48.980469 74.355469 48.949219 74.332031 48.894531 L 74.226562 48.628906 C 74.203125 48.570312 74.179688 48.566406 74.132812 48.582031 C 74.03125 48.628906 73.933594 48.664062 73.78125 48.664062 C 73.484375 48.664062 73.4375 48.472656 73.4375 48.148438 Z M 68.953125 46.617188 C 68.953125 46.679688 68.972656 46.695312 69.039062 46.695312 L 69.347656 46.695312 L 69.347656 48.621094 L 69.042969 48.621094 C 68.988281 48.621094 68.957031 48.644531 68.957031 48.707031 L 68.957031 48.992188 C 68.957031 49.046875 68.988281 49.078125 69.042969 49.078125 L 70.351562 49.078125 C 70.410156 49.078125 70.441406 49.054688 70.441406 48.992188 L 70.441406 48.707031 C 70.441406 48.652344 70.414062 48.621094 70.351562 48.621094 L 69.996094 48.621094 L 69.996094 47.296875 C 69.996094 47.015625 70.277344 46.730469 70.640625 46.730469 C 71.097656 46.730469 71.136719 47.019531 71.136719 47.429688 L 71.136719 48.621094 L 70.859375 48.621094 C 70.800781 48.621094 70.773438 48.644531 70.773438 48.707031 L 70.773438 48.992188 C 70.773438 49.046875 70.800781 49.078125 70.859375 49.078125 L 72.117188 49.078125 C 72.175781 49.078125 72.203125 49.054688 72.203125 48.992188 L 72.203125 48.707031 C 72.203125 48.652344 72.175781 48.621094 72.117188 48.621094 L 71.78125 48.621094 L 71.78125 47.140625 C 71.78125 46.488281 71.46875 46.160156 70.886719 46.160156 C 70.546875 46.160156 70.203125 46.289062 69.964844 46.644531 L 69.914062 46.3125 C 69.902344 46.253906 69.878906 46.222656 69.824219 46.222656 L 69.039062 46.222656 C 68.972656 46.222656 68.953125 46.253906 68.953125 46.3125 Z M 68.183594 45.628906 L 68.492188 45.628906 C 68.546875 45.628906 68.578125 45.609375 68.578125 45.542969 L 68.578125 45.25 C 68.578125 45.191406 68.546875 45.164062 68.492188 45.164062 L 67.234375 45.164062 C 67.175781 45.164062 67.148438 45.1875 67.148438 45.25 L 67.148438 45.542969 C 67.148438 45.601562 67.175781 45.628906 67.234375 45.628906 L 67.539062 45.628906 L 67.539062 48.621094 L 67.234375 48.621094 C 67.175781 48.621094 67.148438 48.644531 67.148438 48.707031 L 67.148438 48.992188 C 67.148438 49.046875 67.175781 49.078125 67.234375 49.078125 L 68.492188 49.078125 C 68.546875 49.078125 68.578125 49.054688 68.578125 48.992188 L 68.578125 48.707031 C 68.578125 48.652344 68.546875 48.621094 68.492188 48.621094 L 68.183594 48.621094 Z M 63.785156 47.367188 C 63.796875 47.058594 63.917969 46.644531 64.421875 46.644531 C 64.894531 46.644531 64.992188 47.019531 64.984375 47.367188 Z M 64.472656 49.148438 C 64.871094 49.148438 65.222656 49.046875 65.421875 48.941406 C 65.476562 48.910156 65.5 48.882812 65.476562 48.824219 L 65.367188 48.558594 C 65.34375 48.5 65.308594 48.484375 65.25 48.511719 C 65.042969 48.605469 64.859375 48.664062 64.597656 48.664062 C 63.976562 48.664062 63.820312 48.28125 63.785156 47.792969 L 65.480469 47.792969 C 65.566406 47.792969 65.578125 47.769531 65.585938 47.699219 C 65.589844 47.628906 65.589844 47.554688 65.589844 47.503906 C 65.589844 46.882812 65.347656 46.160156 64.464844 46.160156 C 63.5625 46.160156 63.148438 46.886719 63.148438 47.648438 C 63.148438 48.523438 63.515625 49.148438 64.472656 49.148438 M 62.429688 48.621094 L 62.429688 46.3125 C 62.429688 46.253906 62.402344 46.222656 62.34375 46.222656 L 61.421875 46.222656 C 61.367188 46.222656 61.335938 46.246094 61.335938 46.3125 L 61.335938 46.609375 C 61.335938 46.667969 61.367188 46.695312 61.421875 46.695312 L 61.785156 46.695312 L 61.785156 48.070312 C 61.785156 48.351562 61.503906 48.632812 61.140625 48.632812 C 60.6875 48.632812 60.644531 48.402344 60.644531 47.992188 L 60.644531 46.3125 C 60.644531 46.253906 60.617188 46.222656 60.558594 46.222656 L 59.695312 46.222656 C 59.628906 46.222656 59.605469 46.246094 59.605469 46.3125 L 59.605469 46.609375 C 59.605469 46.667969 59.636719 46.695312 59.695312 46.695312 L 60 46.695312 L 60 48.167969 C 60 48.820312 60.3125 49.148438 60.933594 49.148438 C 61.3125 49.148438 61.640625 49.003906 61.902344 48.667969 L 61.953125 48.992188 C 61.964844 49.046875 61.984375 49.078125 62.039062 49.078125 L 62.6875 49.078125 C 62.742188 49.078125 62.773438 49.054688 62.773438 48.992188 L 62.773438 48.707031 C 62.773438 48.652344 62.742188 48.621094 62.6875 48.621094 Z M 58.382812 47.988281 C 58.382812 48.402344 58.066406 48.652344 57.703125 48.652344 C 57.105469 48.652344 57.03125 48.148438 57.03125 47.613281 C 57.03125 46.9375 57.339844 46.671875 57.746094 46.671875 C 58.171875 46.671875 58.382812 46.980469 58.382812 46.980469 Z M 59.03125 49.953125 L 59.03125 46.695312 L 59.347656 46.695312 C 59.40625 46.695312 59.433594 46.671875 59.433594 46.609375 L 59.433594 46.3125 C 59.433594 46.253906 59.40625 46.222656 59.347656 46.222656 L 58.625 46.222656 C 58.570312 46.222656 58.550781 46.253906 58.535156 46.3125 L 58.476562 46.546875 C 58.328125 46.328125 58.015625 46.160156 57.648438 46.160156 C 56.949219 46.160156 56.378906 46.644531 56.378906 47.734375 C 56.378906 48.667969 56.816406 49.148438 57.507812 49.148438 C 57.871094 49.148438 58.199219 49.007812 58.382812 48.714844 L 58.382812 50.316406 C 58.382812 50.375 58.414062 50.402344 58.472656 50.402344 L 59.335938 50.402344 C 59.398438 50.402344 59.421875 50.378906 59.421875 50.316406 L 59.421875 50.039062 C 59.421875 49.984375 59.394531 49.953125 59.335938 49.953125 Z M 54.800781 45.398438 C 54.800781 45.660156 55.011719 45.871094 55.273438 45.871094 C 55.53125 45.871094 55.75 45.660156 55.75 45.398438 C 55.75 45.140625 55.53125 44.921875 55.273438 44.921875 C 55.011719 44.921875 54.800781 45.140625 54.800781 45.398438 M 55.667969 48.621094 L 56.03125 48.621094 C 56.089844 48.621094 56.121094 48.644531 56.121094 48.707031 L 56.121094 48.992188 C 56.121094 49.046875 56.089844 49.078125 56.03125 49.078125 L 54.660156 49.078125 C 54.601562 49.078125 54.574219 49.054688 54.574219 48.992188 L 54.574219 48.707031 C 54.574219 48.652344 54.601562 48.621094 54.660156 48.621094 L 55.023438 48.621094 L 55.023438 46.695312 L 54.710938 46.695312 C 54.65625 46.695312 54.625 46.671875 54.625 46.609375 L 54.625 46.3125 C 54.625 46.253906 54.65625 46.222656 54.710938 46.222656 L 55.582031 46.222656 C 55.648438 46.222656 55.667969 46.253906 55.667969 46.3125 Z M 51.144531 45.164062 C 51.144531 45.226562 51.171875 45.25 51.230469 45.25 L 51.542969 45.25 L 51.542969 48.621094 L 51.230469 48.621094 C 51.171875 48.621094 51.144531 48.644531 51.144531 48.707031 L 51.144531 48.992188 C 51.144531 49.046875 51.171875 49.078125 51.230469 49.078125 L 52.539062 49.078125 C 52.601562 49.078125 52.625 49.054688 52.625 48.992188 L 52.625 48.707031 C 52.625 48.652344 52.601562 48.621094 52.539062 48.621094 L 52.1875 48.621094 L 52.1875 47.296875 C 52.1875 47.015625 52.46875 46.730469 52.832031 46.730469 C 53.289062 46.730469 53.328125 47.019531 53.328125 47.429688 L 53.328125 48.621094 L 53.082031 48.621094 C 53.023438 48.621094 52.996094 48.644531 52.996094 48.707031 L 52.996094 48.992188 C 52.996094 49.046875 53.023438 49.078125 53.082031 49.078125 L 54.316406 49.078125 C 54.371094 49.078125 54.402344 49.054688 54.402344 48.992188 L 54.402344 48.707031 C 54.402344 48.652344 54.371094 48.621094 54.316406 48.621094 L 53.972656 48.621094 L 53.972656 47.140625 C 53.972656 46.488281 53.664062 46.160156 53.082031 46.160156 C 52.742188 46.160156 52.417969 46.296875 52.1875 46.640625 L 52.1875 44.863281 C 52.1875 44.800781 52.160156 44.777344 52.101562 44.777344 L 51.230469 44.777344 C 51.167969 44.777344 51.144531 44.804688 51.144531 44.863281 Z M 48.820312 47.324219 C 48.820312 46.910156 49.167969 46.691406 49.5 46.691406 C 50.101562 46.691406 50.175781 47.15625 50.175781 47.671875 C 50.175781 48.4375 49.886719 48.667969 49.480469 48.667969 C 49.070312 48.667969 48.820312 48.425781 48.820312 48.425781 Z M 48.175781 49.949219 L 47.871094 49.949219 C 47.8125 49.949219 47.785156 49.972656 47.785156 50.035156 L 47.785156 50.316406 C 47.785156 50.375 47.8125 50.402344 47.871094 50.402344 L 49.429688 50.402344 C 49.488281 50.402344 49.519531 50.378906 49.519531 50.316406 L 49.519531 50.027344 C 49.519531 49.972656 49.496094 49.941406 49.429688 49.941406 L 48.820312 49.941406 L 48.820312 48.90625 C 48.988281 49.042969 49.234375 49.148438 49.570312 49.148438 C 50.246094 49.148438 50.828125 48.707031 50.828125 47.539062 C 50.828125 46.617188 50.386719 46.160156 49.699219 46.160156 C 49.304688 46.160156 48.976562 46.34375 48.792969 46.65625 L 48.734375 46.3125 C 48.722656 46.253906 48.707031 46.222656 48.648438 46.222656 L 47.863281 46.222656 C 47.800781 46.222656 47.777344 46.246094 47.777344 46.3125 L 47.777344 46.609375 C 47.777344 46.667969 47.804688 46.695312 47.863281 46.695312 L 48.175781 46.695312 Z M 46.53125 48.207031 C 46.53125 48.425781 46.324219 48.675781 45.898438 48.675781 C 45.59375 48.675781 45.441406 48.546875 45.441406 48.277344 C 45.441406 47.769531 46.066406 47.769531 46.53125 47.765625 Z M 46.519531 47.367188 C 45.875 47.375 44.832031 47.402344 44.832031 48.332031 C 44.832031 48.945312 45.246094 49.148438 45.683594 49.148438 C 46.09375 49.148438 46.375 49.007812 46.585938 48.726562 L 46.625 48.992188 C 46.628906 49.046875 46.652344 49.078125 46.710938 49.078125 L 47.390625 49.078125 C 47.449219 49.078125 47.476562 49.054688 47.476562 48.992188 L 47.476562 48.707031 C 47.476562 48.652344 47.449219 48.621094 47.390625 48.621094 L 47.144531 48.621094 L 47.144531 47.105469 C 47.144531 46.597656 46.9375 46.160156 46.113281 46.160156 C 45.519531 46.160156 45 46.363281 44.964844 46.984375 C 44.957031 47.042969 44.964844 47.058594 45.023438 47.058594 L 45.441406 47.058594 C 45.488281 47.058594 45.5 47.054688 45.507812 47.003906 C 45.53125 46.777344 45.65625 46.605469 46.019531 46.605469 C 46.472656 46.605469 46.519531 46.886719 46.519531 47.164062 Z M 44.179688 46.160156 C 43.765625 46.160156 43.472656 46.445312 43.355469 46.71875 L 43.292969 46.3125 C 43.28125 46.253906 43.253906 46.222656 43.195312 46.222656 L 42.433594 46.222656 C 42.371094 46.222656 42.347656 46.246094 42.347656 46.3125 L 42.347656 46.609375 C 42.347656 46.667969 42.375 46.695312 42.433594 46.695312 L 42.746094 46.695312 L 42.746094 48.621094 L 42.441406 48.621094 C 42.382812 48.621094 42.351562 48.644531 42.351562 48.707031 L 42.351562 48.992188 C 42.351562 49.046875 42.382812 49.078125 42.441406 49.078125 L 44.023438 49.078125 C 44.082031 49.078125 44.113281 49.054688 44.113281 48.992188 L 44.113281 48.707031 C 44.113281 48.652344 44.082031 48.621094 44.023438 48.621094 L 43.390625 48.621094 L 43.390625 47.542969 C 43.390625 47.046875 43.65625 46.75 44 46.75 C 44.03125 46.75 44.070312 46.75 44.097656 46.753906 L 44.078125 47.089844 C 44.070312 47.152344 44.097656 47.175781 44.15625 47.175781 L 44.53125 47.175781 C 44.589844 47.175781 44.617188 47.152344 44.617188 47.089844 L 44.617188 46.3125 C 44.617188 46.253906 44.613281 46.230469 44.550781 46.207031 C 44.496094 46.191406 44.308594 46.160156 44.179688 46.160156 M 41.152344 48 C 41.152344 48.414062 40.8125 48.652344 40.503906 48.652344 C 39.929688 48.652344 39.828125 48.210938 39.828125 47.628906 C 39.828125 46.90625 40.144531 46.667969 40.511719 46.667969 C 40.941406 46.667969 41.152344 46.972656 41.152344 46.972656 Z M 41.800781 46.695312 L 42.117188 46.695312 C 42.175781 46.695312 42.203125 46.671875 42.203125 46.609375 L 42.203125 46.3125 C 42.203125 46.253906 42.175781 46.222656 42.117188 46.222656 L 41.414062 46.222656 C 41.355469 46.222656 41.328125 46.253906 41.308594 46.3125 L 41.25 46.535156 C 41.0625 46.316406 40.785156 46.160156 40.414062 46.160156 C 39.753906 46.160156 39.175781 46.605469 39.175781 47.734375 C 39.175781 48.664062 39.609375 49.148438 40.300781 49.148438 C 40.675781 49.148438 40.980469 49.015625 41.152344 48.730469 L 41.152344 49.183594 C 41.152344 49.792969 40.894531 49.964844 40.425781 49.964844 C 40.128906 49.964844 39.851562 49.875 39.722656 49.820312 C 39.667969 49.796875 39.625 49.808594 39.609375 49.867188 L 39.5 50.183594 C 39.480469 50.242188 39.488281 50.277344 39.546875 50.300781 C 39.691406 50.363281 40.039062 50.460938 40.496094 50.460938 C 41.316406 50.460938 41.710938 50.0625 41.769531 49.429688 C 41.792969 49.175781 41.800781 48.851562 41.800781 48.742188 Z M 37.4375 48.675781 C 36.859375 48.675781 36.761719 48.082031 36.761719 47.566406 C 36.761719 47.007812 36.945312 46.632812 37.421875 46.632812 C 37.917969 46.632812 38.097656 47.007812 38.097656 47.652344 C 38.097656 48.316406 37.90625 48.675781 37.4375 48.675781 M 36.109375 47.695312 C 36.109375 48.675781 36.597656 49.148438 37.382812 49.148438 C 38.152344 49.148438 38.773438 48.652344 38.773438 47.574219 C 38.773438 46.296875 37.925781 46.160156 37.476562 46.160156 C 36.921875 46.160156 36.109375 46.476562 36.109375 47.695312 M 33.699219 47.324219 C 33.699219 46.910156 34.046875 46.691406 34.378906 46.691406 C 34.980469 46.691406 35.054688 47.15625 35.054688 47.671875 C 35.054688 48.4375 34.765625 48.667969 34.355469 48.667969 C 33.949219 48.667969 33.699219 48.425781 33.699219 48.425781 Z M 33.054688 49.949219 L 32.75 49.949219 C 32.691406 49.949219 32.664062 49.972656 32.664062 50.035156 L 32.664062 50.316406 C 32.664062 50.375 32.691406 50.402344 32.75 50.402344 L 34.3125 50.402344 C 34.367188 50.402344 34.398438 50.378906 34.398438 50.316406 L 34.398438 50.027344 C 34.398438 49.972656 34.375 49.941406 34.3125 49.941406 L 33.699219 49.941406 L 33.699219 48.90625 C 33.867188 49.042969 34.113281 49.148438 34.449219 49.148438 C 35.125 49.148438 35.707031 48.707031 35.707031 47.539062 C 35.707031 46.617188 35.269531 46.160156 34.574219 46.160156 C 34.183594 46.160156 33.855469 46.34375 33.671875 46.65625 L 33.613281 46.3125 C 33.601562 46.253906 33.585938 46.222656 33.527344 46.222656 L 32.742188 46.222656 C 32.679688 46.222656 32.65625 46.246094 32.65625 46.3125 L 32.65625 46.609375 C 32.65625 46.667969 32.683594 46.695312 32.742188 46.695312 L 33.054688 46.695312 Z M 31.433594 49.246094 C 31.433594 49.769531 31.175781 49.960938 30.703125 49.960938 C 30.402344 49.960938 30.121094 49.863281 29.992188 49.808594 C 29.9375 49.785156 29.902344 49.804688 29.882812 49.863281 L 29.773438 50.191406 C 29.757812 50.246094 29.757812 50.277344 29.816406 50.300781 C 29.957031 50.359375 30.296875 50.460938 30.773438 50.460938 C 31.574219 50.460938 31.980469 50.058594 32.046875 49.417969 C 32.074219 49.101562 32.078125 48.777344 32.078125 48.628906 L 32.078125 46.3125 C 32.078125 46.253906 32.050781 46.222656 31.992188 46.222656 L 31.070312 46.222656 C 31.011719 46.222656 30.984375 46.246094 30.984375 46.3125 L 30.984375 46.609375 C 30.984375 46.667969 31.011719 46.695312 31.070312 46.695312 L 31.433594 46.695312 L 31.433594 48.070312 C 31.433594 48.351562 31.152344 48.632812 30.789062 48.632812 C 30.332031 48.632812 30.292969 48.402344 30.292969 47.992188 L 30.292969 46.3125 C 30.292969 46.253906 30.261719 46.222656 30.207031 46.222656 L 29.339844 46.222656 C 29.277344 46.222656 29.253906 46.246094 29.253906 46.3125 L 29.253906 46.609375 C 29.253906 46.667969 29.285156 46.695312 29.339844 46.695312 L 29.648438 46.695312 L 29.648438 48.167969 C 29.648438 48.820312 29.957031 49.148438 30.539062 49.148438 C 30.878906 49.148438 31.203125 49.042969 31.433594 48.730469 Z M 28.347656 49.078125 C 28.40625 49.078125 28.4375 49.054688 28.4375 48.992188 L 28.4375 48.707031 C 28.4375 48.652344 28.40625 48.621094 28.347656 48.621094 L 27.871094 48.621094 L 27.871094 45.625 L 28.648438 45.625 L 28.621094 46.074219 C 28.617188 46.136719 28.644531 46.160156 28.703125 46.160156 L 29.054688 46.160156 C 29.109375 46.160156 29.140625 46.132812 29.140625 46.074219 L 29.140625 45.25 C 29.140625 45.191406 29.109375 45.164062 29.054688 45.164062 L 26.039062 45.164062 C 25.980469 45.164062 25.953125 45.191406 25.953125 45.25 L 25.953125 46.074219 C 25.953125 46.132812 25.980469 46.160156 26.039062 46.160156 L 26.390625 46.160156 C 26.449219 46.160156 26.476562 46.136719 26.46875 46.074219 L 26.441406 45.625 L 27.21875 45.625 L 27.21875 48.621094 L 26.746094 48.621094 C 26.683594 48.621094 26.660156 48.644531 26.660156 48.707031 L 26.660156 48.992188 C 26.660156 49.046875 26.683594 49.078125 26.746094 49.078125 Z M 21.34375 46.617188 C 21.34375 46.679688 21.367188 46.695312 21.433594 46.695312 L 21.742188 46.695312 L 21.742188 48.621094 L 21.4375 48.621094 C 21.378906 48.621094 21.351562 48.644531 21.351562 48.707031 L 21.351562 48.992188 C 21.351562 49.046875 21.378906 49.078125 21.4375 49.078125 L 22.746094 49.078125 C 22.804688 49.078125 22.832031 49.054688 22.832031 48.992188 L 22.832031 48.707031 C 22.832031 48.652344 22.808594 48.621094 22.746094 48.621094 L 22.390625 48.621094 L 22.390625 47.296875 C 22.390625 47.015625 22.671875 46.730469 23.035156 46.730469 C 23.492188 46.730469 23.53125 47.019531 23.53125 47.429688 L 23.53125 48.621094 L 23.253906 48.621094 C 23.195312 48.621094 23.167969 48.644531 23.167969 48.707031 L 23.167969 48.992188 C 23.167969 49.046875 23.195312 49.078125 23.253906 49.078125 L 24.511719 49.078125 C 24.570312 49.078125 24.597656 49.054688 24.597656 48.992188 L 24.597656 48.707031 C 24.597656 48.652344 24.570312 48.621094 24.511719 48.621094 L 24.175781 48.621094 L 24.175781 47.140625 C 24.175781 46.488281 23.863281 46.160156 23.28125 46.160156 C 22.941406 46.160156 22.597656 46.289062 22.359375 46.644531 L 22.308594 46.3125 C 22.296875 46.253906 22.273438 46.222656 22.214844 46.222656 L 21.433594 46.222656 C 21.367188 46.222656 21.34375 46.253906 21.34375 46.3125 Z M 19.664062 48.675781 C 19.085938 48.675781 18.988281 48.082031 18.988281 47.566406 C 18.988281 47.007812 19.171875 46.632812 19.652344 46.632812 C 20.148438 46.632812 20.324219 47.007812 20.324219 47.652344 C 20.324219 48.316406 20.136719 48.675781 19.664062 48.675781 M 18.335938 47.695312 C 18.335938 48.675781 18.828125 49.148438 19.609375 49.148438 C 20.378906 49.148438 21 48.652344 21 47.574219 C 21 46.296875 20.152344 46.160156 19.703125 46.160156 C 19.148438 46.160156 18.335938 46.476562 18.335938 47.695312 M 16.757812 45.398438 C 16.757812 45.660156 16.96875 45.871094 17.230469 45.871094 C 17.488281 45.871094 17.707031 45.660156 17.707031 45.398438 C 17.707031 45.140625 17.488281 44.921875 17.230469 44.921875 C 16.96875 44.921875 16.757812 45.140625 16.757812 45.398438 M 17.628906 48.621094 L 17.992188 48.621094 C 18.046875 48.621094 18.078125 48.644531 18.078125 48.707031 L 18.078125 48.992188 C 18.078125 49.046875 18.046875 49.078125 17.992188 49.078125 L 16.617188 49.078125 C 16.5625 49.078125 16.53125 49.054688 16.53125 48.992188 L 16.53125 48.707031 C 16.53125 48.652344 16.5625 48.621094 16.617188 48.621094 L 16.980469 48.621094 L 16.980469 46.695312 L 16.671875 46.695312 C 16.613281 46.695312 16.582031 46.671875 16.582031 46.609375 L 16.582031 46.3125 C 16.582031 46.253906 16.613281 46.222656 16.671875 46.222656 L 17.539062 46.222656 C 17.605469 46.222656 17.628906 46.253906 17.628906 46.3125 Z M 15.460938 46.695312 L 16.042969 46.695312 C 16.097656 46.695312 16.128906 46.671875 16.128906 46.609375 L 16.128906 46.3125 C 16.128906 46.253906 16.097656 46.222656 16.042969 46.222656 L 15.460938 46.222656 L 15.460938 45.445312 C 15.460938 45.390625 15.429688 45.359375 15.375 45.359375 L 14.902344 45.359375 C 14.835938 45.359375 14.816406 45.390625 14.816406 45.445312 L 14.816406 46.222656 L 14.484375 46.222656 C 14.425781 46.222656 14.398438 46.246094 14.398438 46.3125 L 14.398438 46.609375 C 14.398438 46.667969 14.425781 46.695312 14.484375 46.695312 L 14.816406 46.695312 L 14.816406 48.085938 C 14.816406 48.585938 14.816406 49.148438 15.644531 49.148438 C 15.863281 49.148438 16.140625 49.089844 16.300781 49.007812 C 16.355469 48.980469 16.375 48.949219 16.355469 48.894531 L 16.25 48.628906 C 16.226562 48.570312 16.203125 48.566406 16.15625 48.582031 C 16.054688 48.628906 15.957031 48.664062 15.804688 48.664062 C 15.503906 48.664062 15.460938 48.472656 15.460938 48.148438 Z M 13.296875 48.207031 C 13.296875 48.425781 13.089844 48.675781 12.664062 48.675781 C 12.359375 48.675781 12.207031 48.546875 12.207031 48.277344 C 12.207031 47.769531 12.832031 47.769531 13.296875 47.765625 Z M 13.285156 47.367188 C 12.640625 47.375 11.597656 47.402344 11.597656 48.332031 C 11.597656 48.945312 12.011719 49.148438 12.449219 49.148438 C 12.859375 49.148438 13.144531 49.007812 13.347656 48.726562 L 13.390625 48.992188 C 13.394531 49.046875 13.417969 49.078125 13.476562 49.078125 L 14.15625 49.078125 C 14.214844 49.078125 14.242188 49.054688 14.242188 48.992188 L 14.242188 48.707031 C 14.242188 48.652344 14.214844 48.621094 14.15625 48.621094 L 13.910156 48.621094 L 13.910156 47.105469 C 13.910156 46.597656 13.703125 46.160156 12.878906 46.160156 C 12.285156 46.160156 11.765625 46.363281 11.730469 46.984375 C 11.722656 47.042969 11.730469 47.058594 11.789062 47.058594 L 12.207031 47.058594 C 12.253906 47.058594 12.265625 47.054688 12.273438 47.003906 C 12.292969 46.777344 12.421875 46.605469 12.785156 46.605469 C 13.242188 46.605469 13.285156 46.886719 13.285156 47.164062 Z M 10.019531 45.398438 C 10.019531 45.660156 10.230469 45.871094 10.492188 45.871094 C 10.75 45.871094 10.96875 45.660156 10.96875 45.398438 C 10.96875 45.140625 10.75 44.921875 10.492188 44.921875 C 10.230469 44.921875 10.019531 45.140625 10.019531 45.398438 M 10.886719 48.621094 L 11.25 48.621094 C 11.308594 48.621094 11.335938 48.644531 11.335938 48.707031 L 11.335938 48.992188 C 11.335938 49.046875 11.308594 49.078125 11.25 49.078125 L 9.878906 49.078125 C 9.820312 49.078125 9.792969 49.054688 9.792969 48.992188 L 9.792969 48.707031 C 9.792969 48.652344 9.820312 48.621094 9.878906 48.621094 L 10.242188 48.621094 L 10.242188 46.695312 L 9.929688 46.695312 C 9.875 46.695312 9.84375 46.671875 9.84375 46.609375 L 9.84375 46.3125 C 9.84375 46.253906 9.875 46.222656 9.929688 46.222656 L 10.800781 46.222656 C 10.867188 46.222656 10.886719 46.253906 10.886719 46.3125 Z M 7.863281 47.613281 C 7.863281 46.96875 8.0625 46.644531 8.53125 46.644531 C 8.882812 46.644531 9.027344 46.847656 9.042969 47.152344 C 9.050781 47.226562 9.074219 47.238281 9.128906 47.238281 L 9.492188 47.238281 C 9.550781 47.238281 9.585938 47.234375 9.585938 47.164062 C 9.585938 46.628906 9.308594 46.160156 8.570312 46.160156 C 7.621094 46.160156 7.203125 46.835938 7.203125 47.664062 C 7.203125 48.535156 7.597656 49.148438 8.570312 49.148438 C 8.996094 49.148438 9.296875 49.03125 9.457031 48.933594 C 9.511719 48.90625 9.527344 48.871094 9.503906 48.8125 L 9.402344 48.558594 C 9.378906 48.5 9.335938 48.484375 9.28125 48.507812 C 9.101562 48.585938 8.929688 48.664062 8.675781 48.664062 C 8.058594 48.664062 7.863281 48.207031 7.863281 47.613281 M 5.464844 48.675781 C 4.886719 48.675781 4.789062 48.082031 4.789062 47.566406 C 4.789062 47.007812 4.972656 46.632812 5.453125 46.632812 C 5.949219 46.632812 6.125 47.007812 6.125 47.652344 C 6.125 48.316406 5.9375 48.675781 5.464844 48.675781 M 4.136719 47.695312 C 4.136719 48.675781 4.628906 49.148438 5.410156 49.148438 C 6.179688 49.148438 6.800781 48.652344 6.800781 47.574219 C 6.800781 46.296875 5.953125 46.160156 5.503906 46.160156 C 4.949219 46.160156 4.136719 46.476562 4.136719 47.695312 M 2.789062 46.160156 C 2.078125 46.160156 1.6875 46.566406 1.6875 47.046875 C 1.6875 48.113281 3.125 47.675781 3.125 48.363281 C 3.125 48.65625 2.878906 48.726562 2.609375 48.726562 C 2.425781 48.726562 2.257812 48.679688 2.167969 48.609375 L 2.183594 48.3125 C 2.191406 48.246094 2.160156 48.226562 2.101562 48.226562 L 1.769531 48.226562 C 1.710938 48.226562 1.679688 48.253906 1.679688 48.3125 L 1.679688 48.921875 C 1.679688 48.984375 1.695312 49.015625 1.757812 49.03125 C 1.90625 49.070312 2.234375 49.148438 2.570312 49.148438 C 3.3125 49.148438 3.734375 48.796875 3.734375 48.21875 C 3.734375 47.167969 2.277344 47.527344 2.277344 46.914062 C 2.277344 46.667969 2.484375 46.59375 2.738281 46.59375 C 2.878906 46.59375 3.019531 46.632812 3.117188 46.6875 L 3.089844 46.980469 C 3.078125 47.042969 3.105469 47.066406 3.164062 47.066406 L 3.496094 47.066406 C 3.554688 47.066406 3.585938 47.035156 3.585938 46.980469 L 3.585938 46.367188 C 3.585938 46.304688 3.566406 46.28125 3.503906 46.265625 C 3.375 46.222656 3.105469 46.160156 2.789062 46.160156 M 0.304688 46.160156 C -0.40625 46.160156 -0.796875 46.566406 -0.796875 47.046875 C -0.796875 48.113281 0.636719 47.675781 0.636719 48.363281 C 0.636719 48.65625 0.398438 48.726562 0.125 48.726562 C -0.0585938 48.726562 -0.226562 48.679688 -0.320312 48.609375 L -0.300781 48.3125 C -0.296875 48.246094 -0.324219 48.226562 -0.382812 48.226562 L -0.714844 48.226562 C -0.773438 48.226562 -0.800781 48.253906 -0.800781 48.3125 L -0.800781 48.921875 C -0.800781 48.984375 -0.792969 49.015625 -0.726562 49.03125 C -0.578125 49.070312 -0.25 49.148438 0.0859375 49.148438 C 0.828125 49.148438 1.25 48.796875 1.25 48.21875 C 1.25 47.167969 -0.207031 47.527344 -0.207031 46.914062 C -0.207031 46.667969 0 46.59375 0.253906 46.59375 C 0.398438 46.59375 0.535156 46.632812 0.632812 46.6875 L 0.605469 46.980469 C 0.59375 47.042969 0.621094 47.066406 0.679688 47.066406 L 1.011719 47.066406 C 1.070312 47.066406 1.097656 47.035156 1.097656 46.980469 L 1.097656 46.367188 C 1.097656 46.304688 1.082031 46.28125 1.019531 46.265625 C 0.894531 46.222656 0.621094 46.160156 0.304688 46.160156 M -3.148438 45.714844 L -2.605469 47.410156 L -3.695312 47.410156 Z M -3.8125 47.84375 L -2.480469 47.84375 L -2.210938 48.621094 L -2.566406 48.621094 C -2.625 48.621094 -2.652344 48.644531 -2.652344 48.707031 L -2.652344 48.992188 C -2.652344 49.046875 -2.625 49.078125 -2.566406 49.078125 L -1.121094 49.078125 C -1.0625 49.078125 -1.035156 49.054688 -1.035156 48.992188 L -1.035156 48.707031 C -1.035156 48.652344 -1.054688 48.621094 -1.121094 48.621094 L -1.511719 48.621094 L -2.675781 45.246094 C -2.699219 45.1875 -2.734375 45.164062 -2.792969 45.164062 L -3.351562 45.164062 C -3.410156 45.164062 -3.445312 45.1875 -3.464844 45.246094 L -4.621094 48.621094 L -4.960938 48.621094 C -5.015625 48.621094 -5.046875 48.644531 -5.046875 48.707031 L -5.046875 48.992188 C -5.046875 49.046875 -5.023438 49.078125 -4.960938 49.078125 L -3.730469 49.078125 C -3.671875 49.078125 -3.644531 49.054688 -3.644531 48.992188 L -3.644531 48.707031 C -3.644531 48.652344 -3.671875 48.621094 -3.730469 48.621094 L -4.078125 48.621094 Z " style=" stroke:none;fill-rule:nonzero;fill:rgb(100%,100%,100%);fill-opacity:1;"/>
</g>
<path d="M 84.898438 40.449219 C 84.90625 40.140625 85.03125 39.726562 85.53125 39.726562 C 86.003906 39.726562 86.101562 40.101562 86.097656 40.449219 Z M 85.582031 42.230469 C 85.980469 42.230469 86.332031 42.128906 86.535156 42.023438 C 86.585938 41.992188 86.609375 41.964844 86.585938 41.90625 L 86.476562 41.640625 C 86.453125 41.582031 86.417969 41.566406 86.359375 41.59375 C 86.152344 41.6875 85.96875 41.746094 85.710938 41.746094 C 85.085938 41.746094 84.933594 41.363281 84.898438 40.875 L 86.59375 40.875 C 86.679688 40.875 86.691406 40.851562 86.695312 40.78125 C 86.699219 40.710938 86.699219 40.636719 86.699219 40.585938 C 86.699219 39.964844 86.460938 39.242188 85.578125 39.242188 C 84.671875 39.242188 84.257812 39.96875 84.257812 40.730469 C 84.257812 41.605469 84.625 42.230469 85.582031 42.230469 M 80.71875 38.246094 C 80.71875 38.308594 80.746094 38.332031 80.804688 38.332031 L 81.113281 38.332031 L 81.113281 41.703125 L 80.804688 41.703125 C 80.746094 41.703125 80.71875 41.726562 80.71875 41.789062 L 80.71875 42.074219 C 80.71875 42.128906 80.746094 42.160156 80.804688 42.160156 L 82.113281 42.160156 C 82.175781 42.160156 82.199219 42.136719 82.199219 42.074219 L 82.199219 41.789062 C 82.199219 41.734375 82.175781 41.703125 82.113281 41.703125 L 81.761719 41.703125 L 81.761719 40.378906 C 81.761719 40.09375 82.042969 39.8125 82.40625 39.8125 C 82.863281 39.8125 82.902344 40.101562 82.902344 40.511719 L 82.902344 41.703125 L 82.652344 41.703125 C 82.597656 41.703125 82.566406 41.726562 82.566406 41.789062 L 82.566406 42.074219 C 82.566406 42.128906 82.597656 42.160156 82.652344 42.160156 L 83.886719 42.160156 C 83.945312 42.160156 83.976562 42.136719 83.976562 42.074219 L 83.976562 41.789062 C 83.976562 41.734375 83.945312 41.703125 83.886719 41.703125 L 83.546875 41.703125 L 83.546875 40.222656 C 83.546875 39.570312 83.238281 39.242188 82.652344 39.242188 C 82.3125 39.242188 81.992188 39.382812 81.761719 39.722656 L 81.761719 37.945312 C 81.761719 37.882812 81.730469 37.859375 81.675781 37.859375 L 80.804688 37.859375 C 80.738281 37.859375 80.71875 37.886719 80.71875 37.945312 Z M 79.621094 39.777344 L 80.203125 39.777344 C 80.261719 39.777344 80.292969 39.753906 80.292969 39.691406 L 80.292969 39.394531 C 80.292969 39.335938 80.261719 39.308594 80.203125 39.308594 L 79.621094 39.308594 L 79.621094 38.527344 C 79.621094 38.46875 79.59375 38.441406 79.535156 38.441406 L 79.0625 38.441406 C 79 38.441406 78.976562 38.46875 78.976562 38.527344 L 78.976562 39.308594 L 78.648438 39.308594 C 78.589844 39.308594 78.5625 39.328125 78.5625 39.394531 L 78.5625 39.691406 C 78.5625 39.75 78.589844 39.777344 78.648438 39.777344 L 78.976562 39.777344 L 78.976562 41.167969 C 78.976562 41.667969 78.976562 42.230469 79.808594 42.230469 C 80.027344 42.230469 80.300781 42.171875 80.464844 42.089844 C 80.515625 42.0625 80.539062 42.03125 80.515625 41.976562 L 80.410156 41.710938 C 80.390625 41.652344 80.367188 41.648438 80.320312 41.664062 C 80.214844 41.710938 80.117188 41.746094 79.96875 41.746094 C 79.667969 41.746094 79.621094 41.554688 79.621094 41.230469 Z M 76.464844 39.773438 L 77.160156 39.773438 C 77.21875 39.773438 77.246094 39.75 77.246094 39.6875 L 77.246094 39.394531 C 77.246094 39.335938 77.21875 39.308594 77.160156 39.308594 L 76.464844 39.308594 L 76.464844 38.886719 C 76.464844 38.46875 76.484375 38.261719 76.824219 38.261719 C 77.011719 38.261719 77.183594 38.34375 77.234375 38.367188 C 77.285156 38.390625 77.316406 38.371094 77.335938 38.328125 L 77.421875 38.039062 C 77.4375 37.980469 77.425781 37.953125 77.375 37.929688 C 77.269531 37.882812 77 37.785156 76.699219 37.785156 C 75.949219 37.785156 75.816406 38.273438 75.816406 38.746094 L 75.816406 39.308594 L 75.460938 39.308594 C 75.402344 39.308594 75.375 39.328125 75.375 39.394531 L 75.375 39.6875 C 75.375 39.746094 75.402344 39.773438 75.460938 39.773438 L 75.816406 39.773438 L 75.816406 41.703125 L 75.460938 41.703125 C 75.402344 41.703125 75.375 41.726562 75.375 41.789062 L 75.375 42.074219 C 75.375 42.128906 75.402344 42.160156 75.460938 42.160156 L 77.074219 42.160156 C 77.132812 42.160156 77.160156 42.136719 77.160156 42.074219 L 77.160156 41.785156 C 77.160156 41.726562 77.136719 41.699219 77.074219 41.699219 L 76.464844 41.699219 Z M 73.71875 41.757812 C 73.144531 41.757812 73.046875 41.164062 73.046875 40.648438 C 73.046875 40.089844 73.230469 39.714844 73.707031 39.714844 C 74.203125 39.714844 74.382812 40.089844 74.382812 40.734375 C 74.382812 41.398438 74.191406 41.757812 73.71875 41.757812 M 72.394531 40.777344 C 72.394531 41.757812 72.882812 42.230469 73.667969 42.230469 C 74.433594 42.230469 75.054688 41.734375 75.054688 40.65625 C 75.054688 39.382812 74.210938 39.242188 73.757812 39.242188 C 73.207031 39.242188 72.394531 39.558594 72.394531 40.777344 M 67.699219 39.699219 C 67.699219 39.761719 67.722656 39.777344 67.785156 39.777344 L 68.097656 39.777344 L 68.097656 41.703125 L 67.792969 41.703125 C 67.734375 41.703125 67.707031 41.726562 67.707031 41.789062 L 67.707031 42.074219 C 67.707031 42.128906 67.734375 42.160156 67.792969 42.160156 L 69.101562 42.160156 C 69.160156 42.160156 69.1875 42.136719 69.1875 42.074219 L 69.1875 41.789062 C 69.1875 41.734375 69.164062 41.703125 69.101562 41.703125 L 68.742188 41.703125 L 68.742188 40.378906 C 68.742188 40.09375 69.027344 39.8125 69.390625 39.8125 C 69.84375 39.8125 69.886719 40.101562 69.886719 40.511719 L 69.886719 41.703125 L 69.609375 41.703125 C 69.550781 41.703125 69.523438 41.726562 69.523438 41.789062 L 69.523438 42.074219 C 69.523438 42.128906 69.550781 42.160156 69.609375 42.160156 L 70.863281 42.160156 C 70.921875 42.160156 70.953125 42.136719 70.953125 42.074219 L 70.953125 41.789062 C 70.953125 41.734375 70.921875 41.703125 70.863281 41.703125 L 70.53125 41.703125 L 70.53125 40.222656 C 70.53125 39.570312 70.21875 39.242188 69.636719 39.242188 C 69.296875 39.242188 68.949219 39.371094 68.714844 39.726562 L 68.664062 39.394531 C 68.652344 39.335938 68.628906 39.308594 68.570312 39.308594 L 67.785156 39.308594 C 67.722656 39.308594 67.699219 39.335938 67.699219 39.394531 Z M 66.015625 41.757812 C 65.441406 41.757812 65.34375 41.164062 65.34375 40.648438 C 65.34375 40.089844 65.527344 39.714844 66.007812 39.714844 C 66.5 39.714844 66.679688 40.089844 66.679688 40.734375 C 66.679688 41.398438 66.488281 41.757812 66.015625 41.757812 M 64.691406 40.777344 C 64.691406 41.757812 65.179688 42.230469 65.964844 42.230469 C 66.730469 42.230469 67.355469 41.734375 67.355469 40.65625 C 67.355469 39.382812 66.507812 39.242188 66.058594 39.242188 C 65.503906 39.242188 64.691406 39.558594 64.691406 40.777344 M 63.113281 38.480469 C 63.113281 38.742188 63.324219 38.953125 63.585938 38.953125 C 63.84375 38.953125 64.0625 38.742188 64.0625 38.480469 C 64.0625 38.222656 63.84375 38.003906 63.585938 38.003906 C 63.324219 38.003906 63.113281 38.222656 63.113281 38.480469 M 63.980469 41.703125 L 64.34375 41.703125 C 64.402344 41.703125 64.433594 41.726562 64.433594 41.789062 L 64.433594 42.074219 C 64.433594 42.128906 64.402344 42.160156 64.34375 42.160156 L 62.972656 42.160156 C 62.917969 42.160156 62.886719 42.136719 62.886719 42.074219 L 62.886719 41.789062 C 62.886719 41.734375 62.917969 41.703125 62.972656 41.703125 L 63.335938 41.703125 L 63.335938 39.777344 L 63.023438 39.777344 C 62.96875 39.777344 62.9375 39.753906 62.9375 39.691406 L 62.9375 39.394531 C 62.9375 39.335938 62.96875 39.308594 63.023438 39.308594 L 63.894531 39.308594 C 63.960938 39.308594 63.980469 39.335938 63.980469 39.394531 Z M 61.816406 39.777344 L 62.398438 39.777344 C 62.457031 39.777344 62.484375 39.753906 62.484375 39.691406 L 62.484375 39.394531 C 62.484375 39.335938 62.457031 39.308594 62.398438 39.308594 L 61.816406 39.308594 L 61.816406 38.527344 C 61.816406 38.46875 61.785156 38.441406 61.726562 38.441406 L 61.257812 38.441406 C 61.191406 38.441406 61.167969 38.46875 61.167969 38.527344 L 61.167969 39.308594 L 60.839844 39.308594 C 60.78125 39.308594 60.753906 39.328125 60.753906 39.394531 L 60.753906 39.691406 C 60.753906 39.75 60.78125 39.777344 60.839844 39.777344 L 61.167969 39.777344 L 61.167969 41.167969 C 61.167969 41.667969 61.167969 42.230469 62 42.230469 C 62.21875 42.230469 62.496094 42.171875 62.65625 42.089844 C 62.707031 42.0625 62.730469 42.03125 62.707031 41.976562 L 62.605469 41.710938 C 62.582031 41.652344 62.558594 41.648438 62.511719 41.664062 C 62.410156 41.710938 62.3125 41.746094 62.160156 41.746094 C 61.859375 41.746094 61.816406 41.554688 61.816406 41.230469 Z M 59.289062 38.480469 C 59.289062 38.742188 59.503906 38.953125 59.761719 38.953125 C 60.023438 38.953125 60.242188 38.742188 60.242188 38.480469 C 60.242188 38.222656 60.023438 38.003906 59.761719 38.003906 C 59.503906 38.003906 59.289062 38.222656 59.289062 38.480469 M 60.160156 41.703125 L 60.523438 41.703125 C 60.582031 41.703125 60.609375 41.726562 60.609375 41.789062 L 60.609375 42.074219 C 60.609375 42.128906 60.582031 42.160156 60.523438 42.160156 L 59.152344 42.160156 C 59.09375 42.160156 59.066406 42.136719 59.066406 42.074219 L 59.066406 41.789062 C 59.066406 41.734375 59.09375 41.703125 59.152344 41.703125 L 59.515625 41.703125 L 59.515625 39.777344 L 59.203125 39.777344 C 59.144531 39.777344 59.117188 39.753906 59.117188 39.691406 L 59.117188 39.394531 C 59.117188 39.335938 59.144531 39.308594 59.203125 39.308594 L 60.074219 39.308594 C 60.136719 39.308594 60.160156 39.335938 60.160156 39.394531 Z M 57.992188 39.777344 L 58.574219 39.777344 C 58.632812 39.777344 58.660156 39.753906 58.660156 39.691406 L 58.660156 39.394531 C 58.660156 39.335938 58.632812 39.308594 58.574219 39.308594 L 57.992188 39.308594 L 57.992188 38.527344 C 57.992188 38.46875 57.964844 38.441406 57.90625 38.441406 L 57.433594 38.441406 C 57.371094 38.441406 57.347656 38.46875 57.347656 38.527344 L 57.347656 39.308594 L 57.019531 39.308594 C 56.960938 39.308594 56.933594 39.328125 56.933594 39.394531 L 56.933594 39.691406 C 56.933594 39.75 56.960938 39.777344 57.019531 39.777344 L 57.347656 39.777344 L 57.347656 41.167969 C 57.347656 41.667969 57.347656 42.230469 58.175781 42.230469 C 58.394531 42.230469 58.671875 42.171875 58.835938 42.089844 C 58.886719 42.0625 58.910156 42.03125 58.886719 41.976562 L 58.78125 41.710938 C 58.757812 41.652344 58.734375 41.648438 58.691406 41.664062 C 58.585938 41.710938 58.488281 41.746094 58.339844 41.746094 C 58.039062 41.746094 57.992188 41.554688 57.992188 41.230469 Z M 54.867188 40.449219 C 54.878906 40.140625 55 39.726562 55.503906 39.726562 C 55.976562 39.726562 56.074219 40.101562 56.066406 40.449219 Z M 55.554688 42.230469 C 55.953125 42.230469 56.304688 42.128906 56.503906 42.023438 C 56.558594 41.992188 56.582031 41.964844 56.558594 41.90625 L 56.449219 41.640625 C 56.425781 41.582031 56.390625 41.566406 56.332031 41.59375 C 56.125 41.6875 55.941406 41.746094 55.679688 41.746094 C 55.058594 41.746094 54.902344 41.363281 54.867188 40.875 L 56.5625 40.875 C 56.648438 40.875 56.660156 40.851562 56.667969 40.78125 C 56.671875 40.710938 56.671875 40.636719 56.671875 40.585938 C 56.671875 39.964844 56.429688 39.242188 55.546875 39.242188 C 54.644531 39.242188 54.226562 39.96875 54.226562 40.730469 C 54.226562 41.605469 54.597656 42.230469 55.554688 42.230469 M 51.820312 40.40625 C 51.820312 39.992188 52.164062 39.773438 52.5 39.773438 C 53.097656 39.773438 53.171875 40.238281 53.171875 40.753906 C 53.171875 41.519531 52.886719 41.75 52.476562 41.75 C 52.066406 41.75 51.820312 41.507812 51.820312 41.507812 Z M 51.171875 43.03125 L 50.867188 43.03125 C 50.808594 43.03125 50.78125 43.054688 50.78125 43.117188 L 50.78125 43.398438 C 50.78125 43.457031 50.808594 43.484375 50.867188 43.484375 L 52.429688 43.484375 C 52.488281 43.484375 52.515625 43.460938 52.515625 43.398438 L 52.515625 43.109375 C 52.515625 43.054688 52.492188 43.023438 52.429688 43.023438 L 51.820312 43.023438 L 51.820312 41.988281 C 51.984375 42.125 52.234375 42.230469 52.566406 42.230469 C 53.242188 42.230469 53.824219 41.789062 53.824219 40.621094 C 53.824219 39.699219 53.386719 39.242188 52.695312 39.242188 C 52.304688 39.242188 51.972656 39.425781 51.789062 39.738281 L 51.730469 39.394531 C 51.722656 39.335938 51.703125 39.308594 51.644531 39.308594 L 50.863281 39.308594 C 50.796875 39.308594 50.773438 39.328125 50.773438 39.394531 L 50.773438 39.691406 C 50.773438 39.75 50.804688 39.777344 50.863281 39.777344 L 51.171875 39.777344 Z M 45.65625 39.691406 C 45.65625 39.753906 45.683594 39.777344 45.742188 39.777344 L 46.054688 39.777344 L 46.054688 41.703125 L 45.75 41.703125 C 45.691406 41.703125 45.660156 41.726562 45.660156 41.789062 L 45.660156 42.074219 C 45.660156 42.128906 45.691406 42.160156 45.75 42.160156 L 47.089844 42.160156 C 47.148438 42.160156 47.179688 42.136719 47.179688 42.074219 L 47.179688 41.789062 C 47.179688 41.734375 47.15625 41.703125 47.089844 41.703125 L 46.699219 41.703125 L 46.699219 40.378906 C 46.699219 40.09375 46.925781 39.8125 47.285156 39.8125 C 47.742188 39.8125 47.78125 40.101562 47.78125 40.511719 L 47.78125 41.703125 L 47.5625 41.703125 C 47.507812 41.703125 47.476562 41.726562 47.476562 41.789062 L 47.476562 42.074219 C 47.476562 42.128906 47.507812 42.160156 47.5625 42.160156 L 48.707031 42.160156 C 48.761719 42.160156 48.792969 42.136719 48.792969 42.074219 L 48.792969 41.789062 C 48.792969 41.734375 48.761719 41.703125 48.707031 41.703125 L 48.429688 41.703125 L 48.429688 40.316406 C 48.429688 40.054688 48.671875 39.8125 49.011719 39.8125 C 49.46875 39.8125 49.507812 40.101562 49.507812 40.511719 L 49.507812 41.703125 L 49.222656 41.703125 C 49.167969 41.703125 49.136719 41.726562 49.136719 41.789062 L 49.136719 42.074219 C 49.136719 42.128906 49.167969 42.160156 49.222656 42.160156 L 50.480469 42.160156 C 50.539062 42.160156 50.566406 42.136719 50.566406 42.074219 L 50.566406 41.789062 C 50.566406 41.734375 50.539062 41.703125 50.480469 41.703125 L 50.152344 41.703125 L 50.152344 40.222656 C 50.152344 39.570312 49.839844 39.242188 49.257812 39.242188 C 48.917969 39.242188 48.578125 39.386719 48.355469 39.75 C 48.226562 39.414062 47.949219 39.242188 47.535156 39.242188 C 47.195312 39.242188 46.867188 39.398438 46.664062 39.726562 L 46.617188 39.394531 C 46.613281 39.335938 46.589844 39.308594 46.53125 39.308594 L 45.742188 39.308594 C 45.679688 39.308594 45.65625 39.335938 45.65625 39.394531 Z M 43.972656 41.757812 C 43.394531 41.757812 43.296875 41.164062 43.296875 40.648438 C 43.296875 40.089844 43.484375 39.714844 43.960938 39.714844 C 44.457031 39.714844 44.636719 40.089844 44.636719 40.734375 C 44.636719 41.398438 44.445312 41.757812 43.972656 41.757812 M 42.648438 40.777344 C 42.648438 41.757812 43.136719 42.230469 43.921875 42.230469 C 44.6875 42.230469 45.308594 41.734375 45.308594 40.65625 C 45.308594 39.382812 44.464844 39.242188 44.011719 39.242188 C 43.460938 39.242188 42.648438 39.558594 42.648438 40.777344 M 39.152344 40.222656 C 39.152344 41.417969 39.71875 42.230469 41.027344 42.230469 C 41.511719 42.230469 41.925781 42.109375 42.183594 41.980469 C 42.242188 41.953125 42.242188 41.929688 42.242188 41.871094 L 42.242188 41.140625 C 42.242188 41.074219 42.214844 41.050781 42.15625 41.050781 L 41.828125 41.050781 C 41.769531 41.050781 41.742188 41.074219 41.746094 41.140625 L 41.769531 41.542969 C 41.621094 41.664062 41.359375 41.726562 41.050781 41.726562 C 40.152344 41.726562 39.84375 40.996094 39.84375 40.128906 C 39.84375 39.316406 40.109375 38.65625 40.953125 38.65625 C 41.253906 38.65625 41.550781 38.753906 41.765625 38.898438 L 41.746094 39.300781 C 41.742188 39.363281 41.769531 39.386719 41.828125 39.386719 L 42.152344 39.386719 C 42.210938 39.386719 42.238281 39.359375 42.238281 39.300781 L 42.238281 38.558594 C 42.238281 38.5 42.214844 38.46875 42.164062 38.441406 C 41.816406 38.25 41.390625 38.148438 40.957031 38.148438 C 40.140625 38.148438 39.152344 38.671875 39.152344 40.222656 M 34.375 39.699219 C 34.375 39.761719 34.398438 39.777344 34.460938 39.777344 L 34.773438 39.777344 L 34.773438 41.703125 L 34.464844 41.703125 C 34.410156 41.703125 34.378906 41.726562 34.378906 41.789062 L 34.378906 42.074219 C 34.378906 42.128906 34.410156 42.160156 34.464844 42.160156 L 35.773438 42.160156 C 35.832031 42.160156 35.863281 42.136719 35.863281 42.074219 L 35.863281 41.789062 C 35.863281 41.734375 35.839844 41.703125 35.773438 41.703125 L 35.417969 41.703125 L 35.417969 40.378906 C 35.417969 40.09375 35.699219 39.8125 36.0625 39.8125 C 36.519531 39.8125 36.558594 40.101562 36.558594 40.511719 L 36.558594 41.703125 L 36.28125 41.703125 C 36.226562 41.703125 36.195312 41.726562 36.195312 41.789062 L 36.195312 42.074219 C 36.195312 42.128906 36.226562 42.160156 36.28125 42.160156 L 37.539062 42.160156 C 37.597656 42.160156 37.625 42.136719 37.625 42.074219 L 37.625 41.789062 C 37.625 41.734375 37.597656 41.703125 37.539062 41.703125 L 37.207031 41.703125 L 37.207031 40.222656 C 37.207031 39.570312 36.894531 39.242188 36.3125 39.242188 C 35.972656 39.242188 35.625 39.371094 35.390625 39.726562 L 35.335938 39.394531 C 35.324219 39.335938 35.300781 39.308594 35.246094 39.308594 L 34.460938 39.308594 C 34.398438 39.308594 34.375 39.335938 34.375 39.394531 Z M 33.179688 41.082031 C 33.179688 41.496094 32.839844 41.734375 32.527344 41.734375 C 31.960938 41.734375 31.855469 41.292969 31.855469 40.710938 C 31.855469 39.988281 32.171875 39.75 32.542969 39.75 C 32.96875 39.75 33.179688 40.054688 33.179688 40.054688 Z M 33.828125 39.777344 L 34.144531 39.777344 C 34.199219 39.777344 34.230469 39.753906 34.230469 39.691406 L 34.230469 39.394531 C 34.230469 39.335938 34.199219 39.308594 34.144531 39.308594 L 33.441406 39.308594 C 33.382812 39.308594 33.355469 39.335938 33.335938 39.394531 L 33.277344 39.617188 C 33.089844 39.398438 32.8125 39.242188 32.441406 39.242188 C 31.78125 39.242188 31.203125 39.6875 31.203125 40.816406 C 31.203125 41.746094 31.636719 42.230469 32.328125 42.230469 C 32.703125 42.230469 33.007812 42.097656 33.179688 41.8125 L 33.179688 42.265625 C 33.179688 42.875 32.921875 43.046875 32.453125 43.046875 C 32.15625 43.046875 31.878906 42.957031 31.75 42.902344 C 31.695312 42.878906 31.652344 42.890625 31.636719 42.949219 L 31.527344 43.265625 C 31.507812 43.324219 31.515625 43.359375 31.574219 43.382812 C 31.71875 43.445312 32.066406 43.542969 32.523438 43.542969 C 33.34375 43.542969 33.738281 43.144531 33.796875 42.511719 C 33.820312 42.257812 33.828125 41.933594 33.828125 41.824219 Z M 29.625 38.480469 C 29.625 38.742188 29.835938 38.953125 30.097656 38.953125 C 30.355469 38.953125 30.574219 38.742188 30.574219 38.480469 C 30.574219 38.222656 30.355469 38.003906 30.097656 38.003906 C 29.835938 38.003906 29.625 38.222656 29.625 38.480469 M 30.496094 41.703125 L 30.859375 41.703125 C 30.914062 41.703125 30.945312 41.726562 30.945312 41.789062 L 30.945312 42.074219 C 30.945312 42.128906 30.914062 42.160156 30.859375 42.160156 L 29.484375 42.160156 C 29.429688 42.160156 29.398438 42.136719 29.398438 42.074219 L 29.398438 41.789062 C 29.398438 41.734375 29.429688 41.703125 29.484375 41.703125 L 29.847656 41.703125 L 29.847656 39.777344 L 29.535156 39.777344 C 29.480469 39.777344 29.449219 39.753906 29.449219 39.691406 L 29.449219 39.394531 C 29.449219 39.335938 29.480469 39.308594 29.535156 39.308594 L 30.40625 39.308594 C 30.472656 39.308594 30.496094 39.335938 30.496094 39.394531 Z M 28.160156 39.242188 C 27.449219 39.242188 27.058594 39.648438 27.058594 40.128906 C 27.058594 41.195312 28.492188 40.757812 28.492188 41.445312 C 28.492188 41.738281 28.253906 41.808594 27.980469 41.808594 C 27.796875 41.808594 27.628906 41.761719 27.535156 41.691406 L 27.554688 41.394531 C 27.558594 41.328125 27.53125 41.308594 27.472656 41.308594 L 27.140625 41.308594 C 27.082031 41.308594 27.054688 41.335938 27.054688 41.394531 L 27.054688 42.003906 C 27.054688 42.066406 27.0625 42.097656 27.128906 42.113281 C 27.277344 42.152344 27.605469 42.230469 27.941406 42.230469 C 28.683594 42.230469 29.105469 41.878906 29.105469 41.300781 C 29.105469 40.25 27.648438 40.609375 27.648438 39.996094 C 27.648438 39.75 27.855469 39.675781 28.109375 39.675781 C 28.253906 39.675781 28.390625 39.714844 28.488281 39.769531 L 28.460938 40.0625 C 28.449219 40.125 28.476562 40.148438 28.535156 40.148438 L 28.867188 40.148438 C 28.925781 40.148438 28.957031 40.117188 28.957031 40.0625 L 28.957031 39.449219 C 28.957031 39.386719 28.9375 39.363281 28.875 39.347656 C 28.75 39.308594 28.476562 39.242188 28.160156 39.242188 M 24.84375 40.449219 C 24.855469 40.140625 24.976562 39.726562 25.480469 39.726562 C 25.953125 39.726562 26.050781 40.101562 26.042969 40.449219 Z M 25.53125 42.230469 C 25.929688 42.230469 26.28125 42.128906 26.480469 42.023438 C 26.535156 41.992188 26.558594 41.964844 26.535156 41.90625 L 26.425781 41.640625 C 26.402344 41.582031 26.367188 41.566406 26.308594 41.59375 C 26.101562 41.6875 25.917969 41.746094 25.65625 41.746094 C 25.035156 41.746094 24.878906 41.363281 24.84375 40.875 L 26.539062 40.875 C 26.625 40.875 26.636719 40.851562 26.644531 40.78125 C 26.648438 40.710938 26.648438 40.636719 26.648438 40.585938 C 26.648438 39.964844 26.40625 39.242188 25.523438 39.242188 C 24.621094 39.242188 24.207031 39.96875 24.207031 40.730469 C 24.207031 41.605469 24.574219 42.230469 25.53125 42.230469 M 23.023438 40.199219 C 23.023438 41.082031 22.5625 41.710938 21.691406 41.710938 L 21.3125 41.710938 L 21.3125 38.691406 L 21.679688 38.691406 C 22.609375 38.691406 23.023438 39.191406 23.023438 40.199219 M 21.609375 38.210938 C 21.230469 38.210938 20.734375 38.226562 20.367188 38.246094 C 20.300781 38.246094 20.277344 38.269531 20.277344 38.332031 L 20.277344 38.625 C 20.277344 38.683594 20.308594 38.710938 20.367188 38.710938 L 20.664062 38.710938 L 20.664062 41.703125 L 20.367188 41.703125 C 20.308594 41.703125 20.277344 41.726562 20.277344 41.789062 L 20.277344 42.074219 C 20.277344 42.128906 20.308594 42.160156 20.367188 42.160156 L 21.566406 42.160156 C 22.832031 42.160156 23.714844 41.542969 23.714844 40.09375 C 23.714844 38.378906 22.453125 38.210938 21.609375 38.210938 M 16.917969 40.449219 C 16.929688 40.140625 17.050781 39.726562 17.550781 39.726562 C 18.023438 39.726562 18.125 40.101562 18.117188 40.449219 Z M 17.605469 42.230469 C 18.003906 42.230469 18.355469 42.128906 18.554688 42.023438 C 18.605469 41.992188 18.628906 41.964844 18.605469 41.90625 L 18.5 41.640625 C 18.476562 41.582031 18.441406 41.566406 18.382812 41.59375 C 18.175781 41.6875 17.992188 41.746094 17.730469 41.746094 C 17.109375 41.746094 16.953125 41.363281 16.917969 40.875 L 18.613281 40.875 C 18.699219 40.875 18.710938 40.851562 18.71875 40.78125 C 18.722656 40.710938 18.722656 40.636719 18.722656 40.585938 C 18.722656 39.964844 18.480469 39.242188 17.597656 39.242188 C 16.691406 39.242188 16.277344 39.96875 16.277344 40.730469 C 16.277344 41.605469 16.648438 42.230469 17.605469 42.230469 M 13.867188 40.40625 C 13.867188 39.992188 14.214844 39.773438 14.550781 39.773438 C 15.148438 39.773438 15.222656 40.238281 15.222656 40.753906 C 15.222656 41.519531 14.933594 41.75 14.527344 41.75 C 14.117188 41.75 13.867188 41.507812 13.867188 41.507812 Z M 13.222656 43.03125 L 12.917969 43.03125 C 12.859375 43.03125 12.832031 43.054688 12.832031 43.117188 L 12.832031 43.398438 C 12.832031 43.457031 12.859375 43.484375 12.917969 43.484375 L 14.480469 43.484375 C 14.535156 43.484375 14.566406 43.460938 14.566406 43.398438 L 14.566406 43.109375 C 14.566406 43.054688 14.542969 43.023438 14.480469 43.023438 L 13.867188 43.023438 L 13.867188 41.988281 C 14.035156 42.125 14.285156 42.230469 14.617188 42.230469 C 15.292969 42.230469 15.875 41.789062 15.875 40.621094 C 15.875 39.699219 15.4375 39.242188 14.746094 39.242188 C 14.351562 39.242188 14.023438 39.425781 13.839844 39.738281 L 13.78125 39.394531 C 13.769531 39.335938 13.753906 39.308594 13.695312 39.308594 L 12.910156 39.308594 C 12.847656 39.308594 12.824219 39.328125 12.824219 39.394531 L 12.824219 39.691406 C 12.824219 39.75 12.855469 39.777344 12.910156 39.777344 L 13.222656 39.777344 Z M 11.601562 42.328125 C 11.601562 42.851562 11.34375 43.042969 10.871094 43.042969 C 10.570312 43.042969 10.289062 42.945312 10.160156 42.890625 C 10.105469 42.867188 10.070312 42.886719 10.050781 42.945312 L 9.941406 43.273438 C 9.925781 43.328125 9.925781 43.359375 9.984375 43.382812 C 10.128906 43.441406 10.46875 43.542969 10.941406 43.542969 C 11.742188 43.542969 12.152344 43.140625 12.214844 42.5 C 12.242188 42.183594 12.25 41.859375 12.25 41.710938 L 12.25 39.394531 C 12.25 39.335938 12.21875 39.308594 12.160156 39.308594 L 11.238281 39.308594 C 11.183594 39.308594 11.152344 39.328125 11.152344 39.394531 L 11.152344 39.691406 C 11.152344 39.75 11.183594 39.777344 11.238281 39.777344 L 11.601562 39.777344 L 11.601562 41.152344 C 11.601562 41.433594 11.320312 41.714844 10.957031 41.714844 C 10.503906 41.714844 10.460938 41.484375 10.460938 41.074219 L 10.460938 39.394531 C 10.460938 39.335938 10.433594 39.308594 10.375 39.308594 L 9.511719 39.308594 C 9.445312 39.308594 9.425781 39.328125 9.425781 39.394531 L 9.425781 39.691406 C 9.425781 39.75 9.453125 39.777344 9.511719 39.777344 L 9.816406 39.777344 L 9.816406 41.25 C 9.816406 41.902344 10.128906 42.230469 10.710938 42.230469 C 11.050781 42.230469 11.375 42.125 11.601562 41.8125 Z M 8.519531 42.160156 C 8.578125 42.160156 8.605469 42.136719 8.605469 42.074219 L 8.605469 41.789062 C 8.605469 41.734375 8.578125 41.703125 8.519531 41.703125 L 8.039062 41.703125 L 8.039062 38.707031 L 8.820312 38.707031 L 8.789062 39.15625 C 8.785156 39.21875 8.8125 39.242188 8.871094 39.242188 L 9.222656 39.242188 C 9.28125 39.242188 9.308594 39.214844 9.308594 39.15625 L 9.308594 38.332031 C 9.308594 38.273438 9.28125 38.246094 9.222656 38.246094 L 6.207031 38.246094 C 6.148438 38.246094 6.121094 38.273438 6.121094 38.332031 L 6.121094 39.15625 C 6.121094 39.214844 6.148438 39.242188 6.207031 39.242188 L 6.558594 39.242188 C 6.617188 39.242188 6.644531 39.21875 6.640625 39.15625 L 6.609375 38.707031 L 7.390625 38.707031 L 7.390625 41.703125 L 6.917969 41.703125 C 6.851562 41.703125 6.832031 41.726562 6.832031 41.789062 L 6.832031 42.074219 C 6.832031 42.128906 6.851562 42.160156 6.917969 42.160156 Z M 3.699219 41.074219 C 3.699219 41.492188 3.355469 41.726562 3.023438 41.726562 C 2.421875 41.726562 2.34375 41.230469 2.34375 40.71875 C 2.34375 39.992188 2.65625 39.75 3.058594 39.75 C 3.484375 39.75 3.699219 40.0625 3.699219 40.0625 Z M 4.34375 41.703125 L 4.34375 37.945312 C 4.34375 37.882812 4.316406 37.859375 4.257812 37.859375 L 3.394531 37.859375 C 3.332031 37.859375 3.308594 37.882812 3.308594 37.945312 L 3.308594 38.25 C 3.308594 38.308594 3.335938 38.335938 3.394531 38.335938 L 3.699219 38.335938 L 3.699219 39.566406 C 3.589844 39.410156 3.332031 39.242188 2.960938 39.242188 C 2.265625 39.242188 1.691406 39.703125 1.691406 40.816406 C 1.691406 41.773438 2.132812 42.230469 2.867188 42.230469 C 3.261719 42.230469 3.601562 42.085938 3.808594 41.734375 L 3.855469 42.074219 C 3.859375 42.128906 3.882812 42.160156 3.941406 42.160156 L 4.59375 42.160156 C 4.652344 42.160156 4.679688 42.136719 4.679688 42.074219 L 4.679688 41.789062 C 4.679688 41.734375 4.652344 41.703125 4.59375 41.703125 Z M -1.847656 39.699219 C -1.847656 39.761719 -1.824219 39.777344 -1.761719 39.777344 L -1.449219 39.777344 L -1.449219 41.703125 L -1.753906 41.703125 C -1.8125 41.703125 -1.839844 41.726562 -1.839844 41.789062 L -1.839844 42.074219 C -1.839844 42.128906 -1.8125 42.160156 -1.753906 42.160156 L -0.445312 42.160156 C -0.386719 42.160156 -0.359375 42.136719 -0.359375 42.074219 L -0.359375 41.789062 C -0.359375 41.734375 -0.382812 41.703125 -0.445312 41.703125 L -0.804688 41.703125 L -0.804688 40.378906 C -0.804688 40.09375 -0.519531 39.8125 -0.15625 39.8125 C 0.296875 39.8125 0.339844 40.101562 0.339844 40.511719 L 0.339844 41.703125 L 0.0625 41.703125 C 0.00390625 41.703125 -0.0234375 41.726562 -0.0234375 41.789062 L -0.0234375 42.074219 C -0.0234375 42.128906 0.00390625 42.160156 0.0625 42.160156 L 1.320312 42.160156 C 1.375 42.160156 1.40625 42.136719 1.40625 42.074219 L 1.40625 41.789062 C 1.40625 41.734375 1.375 41.703125 1.320312 41.703125 L 0.984375 41.703125 L 0.984375 40.222656 C 0.984375 39.570312 0.671875 39.242188 0.0898438 39.242188 C -0.25 39.242188 -0.59375 39.371094 -0.832031 39.726562 L -0.882812 39.394531 C -0.894531 39.335938 -0.917969 39.308594 -0.976562 39.308594 L -1.761719 39.308594 C -1.824219 39.308594 -1.847656 39.335938 -1.847656 39.394531 Z M -3.640625 38.851562 C -3.179688 38.851562 -3.078125 39.132812 -3.078125 39.425781 C -3.078125 39.832031 -3.28125 40.09375 -3.609375 40.453125 L -4.710938 41.640625 C -4.769531 41.703125 -4.785156 41.746094 -4.785156 41.832031 L -4.785156 42.050781 C -4.785156 42.136719 -4.761719 42.160156 -4.675781 42.160156 L -2.726562 42.160156 L -2.738281 42.355469 C -2.746094 42.441406 -2.722656 42.464844 -2.636719 42.464844 L -2.359375 42.464844 C -2.273438 42.464844 -2.25 42.441406 -2.25 42.355469 L -2.25 41.363281 C -2.25 41.277344 -2.273438 41.253906 -2.359375 41.253906 L -2.636719 41.253906 C -2.722656 41.253906 -2.746094 41.277344 -2.738281 41.363281 L -2.722656 41.667969 L -4.03125 41.667969 L -3.101562 40.710938 C -2.710938 40.304688 -2.410156 39.933594 -2.410156 39.375 C -2.410156 38.710938 -2.894531 38.378906 -3.5625 38.378906 C -4.242188 38.378906 -4.707031 38.707031 -4.738281 39.335938 C -4.746094 39.421875 -4.722656 39.445312 -4.636719 39.445312 L -4.308594 39.445312 C -4.222656 39.445312 -4.199219 39.421875 -4.1875 39.335938 C -4.15625 39.050781 -4 38.851562 -3.640625 38.851562 " style=" stroke:none;fill-rule:nonzero;fill:rgb(100%,100%,100%);fill-opacity:1;"/>
<path d="M 72.019531 30.882812 C 72.019531 32.488281 73.113281 33.738281 75.167969 33.738281 C 77.191406 33.738281 78.316406 32.457031 78.316406 30.816406 C 78.316406 29.179688 77.0625 27.957031 75.105469 27.957031 C 73.273438 27.957031 72.019531 29.242188 72.019531 30.882812 " style=" stroke:none;fill-rule:nonzero;fill:rgb(100%,100%,100%);fill-opacity:1;"/>
<path d="M 23.171875 28.054688 C 23.171875 30.847656 23.203125 33.738281 27.890625 33.738281 C 29.433594 33.738281 30.878906 33.226562 31.648438 32.808594 C 31.90625 32.679688 31.90625 32.519531 31.875 32.328125 L 31.328125 29.917969 C 31.296875 29.789062 31.261719 29.628906 31.007812 29.722656 C 30.71875 29.820312 30.429688 29.886719 30.140625 29.886719 C 29.53125 29.886719 29.371094 29.5 29.371094 28.824219 L 29.371094 20.410156 L 32.515625 20.410156 L 32.515625 28.054688 C 32.515625 30.847656 32.546875 33.738281 37.238281 33.738281 C 38.78125 33.738281 40.351562 33.195312 40.996094 32.808594 C 41.253906 32.679688 41.253906 32.519531 41.21875 32.328125 L 40.675781 29.917969 C 40.640625 29.789062 40.609375 29.628906 40.351562 29.722656 C 40 29.820312 39.773438 29.886719 39.484375 29.886719 C 38.875 29.886719 38.714844 29.5 38.714844 28.824219 L 38.714844 20.445312 L 41.414062 20.445312 C 41.734375 20.445312 41.894531 20.28125 41.894531 19.992188 L 41.894531 17.261719 C 41.894531 16.972656 41.734375 16.8125 41.414062 16.8125 L 38.714844 16.8125 L 38.714844 12.414062 C 38.714844 12.1875 38.617188 12.027344 38.328125 12.0625 L 32.964844 12.605469 C 32.675781 12.636719 32.515625 12.796875 32.515625 13.085938 L 32.515625 16.8125 L 29.371094 16.8125 L 29.371094 12.414062 C 29.371094 12.1875 29.273438 12.027344 28.984375 12.0625 L 23.621094 12.605469 C 23.332031 12.636719 23.171875 12.796875 23.171875 13.085938 Z " style=" stroke:none;fill-rule:nonzero;fill:rgb(100%,100%,100%);fill-opacity:1;"/>
<g clip-path="url(#clip2)" clip-rule="nonzero">
<path d="M 94.34375 33.195312 C 94.632812 33.195312 94.792969 33.03125 94.792969 32.710938 L 94.792969 29.210938 C 94.792969 28.890625 94.632812 28.730469 94.34375 28.730469 L 87.824219 28.730469 L 89.8125 27.125 C 92.863281 24.683594 94.246094 23.238281 94.246094 20.027344 C 94.246094 16.75 91.484375 14.824219 86.34375 14.824219 C 83.132812 14.824219 80.371094 15.464844 79.664062 15.59375 C 79.214844 15.691406 79.152344 16.011719 79.152344 16.300781 L 79.152344 21.375 C 79.152344 21.695312 79.3125 21.855469 79.601562 21.855469 L 83.421875 21.855469 C 83.710938 21.855469 83.90625 21.726562 83.871094 21.375 L 83.777344 19.03125 C 84.386719 18.902344 85.058594 18.835938 85.511719 18.835938 C 87.019531 18.835938 87.664062 19.671875 87.664062 20.859375 C 87.664062 22.402344 86.792969 23.367188 83.453125 26.546875 L 79.855469 29.980469 C 79.632812 30.175781 79.570312 30.269531 79.570312 30.527344 L 79.570312 32.710938 C 79.570312 33.03125 79.730469 33.195312 80.015625 33.195312 Z " style=" stroke:none;fill-rule:nonzero;fill:rgb(100%,100%,100%);fill-opacity:1;"/>
</g>
<path d="M 70.285156 29.789062 L 66.722656 29.789062 L 66.722656 24.777344 C 66.722656 22.113281 67.363281 20.796875 68.617188 20.796875 C 68.777344 20.796875 69.128906 20.796875 69.292969 20.828125 L 69.164062 22.882812 C 69.128906 23.238281 69.324219 23.363281 69.613281 23.363281 L 73.433594 23.363281 C 73.722656 23.363281 73.882812 23.207031 73.882812 22.882812 L 73.882812 17.488281 C 73.882812 17.199219 73.820312 16.878906 73.371094 16.78125 C 72.597656 16.621094 71.667969 16.558594 70.992188 16.558594 C 68.457031 16.558594 66.847656 18.066406 66.078125 19.511719 L 66.078125 17.296875 C 66.078125 16.972656 65.917969 16.8125 65.628906 16.8125 L 58.789062 16.8125 C 58.5 16.8125 58.339844 16.972656 58.339844 17.296875 L 58.339844 19.960938 C 58.339844 20.28125 58.5 20.441406 58.789062 20.441406 L 60.554688 20.441406 L 60.554688 29.789062 L 58.820312 29.789062 C 58.53125 29.789062 58.371094 29.949219 58.371094 30.269531 L 58.371094 32.710938 C 58.371094 33.03125 58.53125 33.191406 58.820312 33.191406 L 70.285156 33.191406 C 70.574219 33.191406 70.738281 33.03125 70.738281 32.710938 L 70.738281 30.269531 C 70.738281 29.949219 70.574219 29.789062 70.285156 29.789062 " style=" stroke:none;fill-rule:nonzero;fill:rgb(100%,100%,100%);fill-opacity:1;"/>
<path d="M -4.386719 12.027344 C -4.675781 12.027344 -4.835938 12.1875 -4.835938 12.511719 L -4.835938 14.949219 C -4.835938 15.273438 -4.675781 15.433594 -4.386719 15.433594 L -2.621094 15.433594 L -2.621094 29.789062 L -4.355469 29.789062 C -4.644531 29.789062 -4.804688 29.949219 -4.804688 30.269531 L -4.804688 32.710938 C -4.804688 33.03125 -4.644531 33.195312 -4.355469 33.195312 L 5.152344 33.195312 C 5.441406 33.195312 5.601562 33.03125 5.601562 32.710938 L 5.601562 30.269531 C 5.601562 29.949219 5.441406 29.789062 5.152344 29.789062 L 3.546875 29.789062 L 3.546875 12.511719 C 3.546875 12.1875 3.386719 12.027344 3.097656 12.027344 Z " style=" stroke:none;fill-rule:nonzero;fill:rgb(100%,100%,100%);fill-opacity:1;"/>
<path d="M 51.753906 23.460938 L 48.15625 23.460938 C 48.191406 21.40625 48.929688 20.378906 50.050781 20.378906 C 51.273438 20.378906 51.820312 21.277344 51.753906 23.460938 M 57.695312 24.359375 C 57.695312 20.121094 56.089844 16.558594 50.277344 16.558594 C 44.496094 16.558594 41.703125 20.539062 41.703125 25.226562 C 41.703125 30.367188 44.175781 33.738281 50.210938 33.738281 C 53.230469 33.738281 55.480469 32.710938 56.796875 31.972656 C 57.085938 31.8125 57.054688 31.621094 56.925781 31.332031 L 55.996094 28.921875 C 55.898438 28.632812 55.800781 28.535156 55.480469 28.664062 C 53.617188 29.4375 52.589844 29.53125 51.625 29.53125 C 49.410156 29.53125 48.285156 28.152344 48.222656 26.320312 L 57.117188 26.320312 C 57.441406 26.320312 57.535156 26.257812 57.597656 26 C 57.664062 25.742188 57.695312 24.746094 57.695312 24.359375 " style=" stroke:none;fill-rule:nonzero;fill:rgb(100%,100%,100%);fill-opacity:1;"/>
<path d="M 15.71875 23.460938 L 12.121094 23.460938 C 12.152344 21.40625 12.894531 20.378906 14.015625 20.378906 C 15.238281 20.378906 15.78125 21.277344 15.71875 23.460938 M 21.660156 24.359375 C 21.660156 20.121094 20.054688 16.558594 14.242188 16.558594 C 8.460938 16.558594 5.667969 20.539062 5.667969 25.226562 C 5.667969 30.367188 8.140625 33.738281 14.175781 33.738281 C 17.195312 33.738281 19.445312 32.710938 20.761719 31.972656 C 21.050781 31.8125 21.019531 31.621094 20.890625 31.332031 L 19.957031 28.921875 C 19.863281 28.632812 19.765625 28.535156 19.445312 28.664062 C 17.582031 29.4375 16.554688 29.53125 15.589844 29.53125 C 13.375 29.53125 12.25 28.152344 12.1875 26.320312 L 21.082031 26.320312 C 21.402344 26.320312 21.5 26.257812 21.5625 26 C 21.628906 25.742188 21.660156 24.746094 21.660156 24.359375 " style=" stroke:none;fill-rule:nonzero;fill:rgb(100%,100%,100%);fill-opacity:1;"/>
</g>
</svg>