<?xml version="1.0" encoding="UTF-8"?><svg enable-background="new 0 0 90.709 90.7085" height="90.7085px" version="1.1" viewBox="0 0 90.709 90.7085" width="90.709px" x="0px" xml:space="preserve" xmlns="http://www.w3.org/2000/svg" xmlns:xlink="http://www.w3.org/1999/xlink" y="0px">
<g id="surface1">
<path d="M 50.898438 62.347656 C 49.171875 62.34375 46.75 60.953125 47.585938 55.507812 C 47.796875 54.117188 48.96875 51.957031 50.042969 50.773438 C 51.085938 49.625 53.964844 47.035156 56.492188 44.425781 L 56.605469 50.988281 C 56.679688 56.378906 55.578125 62.355469 50.898438 62.347656 M 69.078125 57.175781 L 69.039062 53.5 L 66.511719 53.457031 L 66.539062 59.449219 C 66.589844 62.339844 65.375 62.347656 64.746094 62.34375 C 62.863281 62.335938 63.3125 59.390625 63.3125 57.355469 L 63.375 38.328125 C 63.375 36.078125 63.296875 34.6875 62.988281 33.8125 C 62.609375 32.753906 62.304688 31.953125 61.699219 31.132812 C 59.675781 28.421875 57.179688 27.390625 53.441406 27.410156 C 50.230469 27.425781 47.640625 27.703125 45.457031 29.515625 C 43.320312 31.296875 42.210938 33.464844 42.339844 36.367188 C 42.414062 38.070312 42.882812 39.464844 43.96875 40.511719 C 45.054688 41.554688 45.78125 42 47.167969 42.03125 C 48.375 42.058594 49.199219 41.675781 50.121094 40.691406 C 50.980469 39.710938 51.214844 38.820312 51.214844 37.488281 C 51.214844 36.523438 51.066406 36.09375 50.675781 35.480469 C 50.460938 35.140625 50.140625 34.875 49.832031 34.652344 C 49.195312 34.1875 48.609375 34.046875 47.5625 34.210938 C 46.199219 34.425781 45.457031 35.402344 45 36.339844 C 45.023438 36.292969 44.800781 36.078125 44.800781 35.527344 C 44.800781 35.324219 44.90625 34.730469 45.015625 34.476562 C 45.125 34.222656 46.015625 32.089844 47.929688 31.390625 L 48.132812 31.320312 C 51.976562 30.050781 54.375 31.738281 55.292969 32.792969 C 56.210938 33.847656 56.691406 35.257812 56.691406 36.941406 C 56.691406 39.824219 54.84375 42.625 51.628906 44.382812 L 47.367188 46.984375 C 45.078125 48.359375 43.351562 49.941406 42.363281 52.042969 C 42.363281 51.910156 42.367188 51.777344 42.367188 51.640625 L 42.351562 49.519531 L 38.871094 49.550781 L 38.855469 51.625 C 38.824219 60.371094 36.796875 62.542969 33.875 62.496094 C 30.792969 62.449219 29.691406 59.925781 29.117188 57.820312 C 28.484375 55.710938 28.503906 51.234375 28.503906 45.472656 C 28.503906 40.414062 28.925781 36.101562 29.671875 34.0625 C 30.476562 32.097656 32.71875 30.859375 34.613281 30.796875 C 37.101562 30.71875 39.242188 32.054688 39.945312 34.894531 C 39.960938 34.957031 40.113281 35.527344 40.101562 35.980469 C 40.078125 36.707031 39.90625 36.550781 39.945312 36.558594 C 39.761719 36.523438 39.664062 36.234375 39.589844 36.09375 C 39.285156 35.511719 39.011719 35.261719 39.011719 35.261719 C 38.359375 34.425781 37.273438 34.34375 37.066406 34.34375 C 36.148438 34.34375 35.054688 34.53125 34.394531 35.558594 C 33.777344 36.523438 33.660156 37.09375 33.734375 38.359375 C 33.90625 41.355469 36.421875 42.148438 37.324219 42.222656 C 37.96875 42.273438 39.121094 42.046875 39.757812 41.515625 C 41 40.480469 41.257812 39.703125 41.914062 37.804688 C 42.925781 34.882812 41.933594 32.132812 40.210938 30.238281 C 38.488281 28.410156 36.386719 27.363281 33.570312 27.363281 C 29.78125 27.363281 26.535156 28.742188 24.472656 32.152344 C 22.347656 35.664062 21.769531 40.460938 21.726562 46.640625 C 21.632812 60.117188 25.207031 65.722656 32.582031 66.105469 C 37.417969 66.355469 40.179688 64.070312 41.464844 59.609375 C 41.589844 60.996094 41.933594 62.242188 42.789062 63.25 C 44.28125 65.003906 46.996094 66.15625 49.292969 66.15625 C 52.28125 66.15625 54.625 64.917969 56.632812 61.332031 C 57.496094 64.917969 59.859375 66.167969 62.753906 66.132812 C 68.535156 66.066406 69.207031 62.628906 69.078125 57.175781 " style=" stroke:none;fill-rule:nonzero;fill:rgb(0%,0%,0%);fill-opacity:1;"/>
</g>
</svg>