<?xml version="1.0" encoding="UTF-8"?><svg enable-background="new 0 0 90.709 90.7085" height="90.7085px" version="1.1" viewBox="0 0 90.709 90.7085" width="90.709px" x="0px" xml:space="preserve" xmlns="http://www.w3.org/2000/svg" xmlns:xlink="http://www.w3.org/1999/xlink" y="0px">
<g id="surface1">
<path d="M 63.523438 38.976562 L 63.414062 38.835938 C 63.378906 38.742188 63.324219 38.375 63.25 37.75 L 62.777344 32.320312 C 62.429688 32.828125 61.941406 33.082031 61.308594 33.082031 C 60.898438 33.082031 60.183594 32.96875 59.171875 32.753906 L 57.417969 32.371094 C 56.089844 32.089844 54.683594 31.941406 53.199219 31.941406 C 51.878906 31.941406 50.417969 32.121094 48.835938 32.484375 L 48.835938 33.671875 L 49.316406 33.964844 C 50.359375 33.507812 51.566406 33.269531 52.921875 33.269531 C 57.582031 33.269531 60.78125 35.175781 62.527344 38.976562 L 62.527344 39.167969 L 62.671875 39.117188 L 63.332031 38.976562 L 63.523438 38.976562 M 64.230469 56.179688 L 64.136719 56.128906 L 63.523438 55.894531 L 63.425781 55.84375 L 63.425781 55.941406 C 62.671875 57.488281 61.332031 58.785156 59.433594 59.8125 C 57.539062 60.84375 55.554688 61.355469 53.496094 61.355469 C 52.292969 61.355469 51.007812 61.167969 49.652344 60.785156 C 49.105469 61.234375 48.367188 61.609375 47.414062 61.925781 C 49.058594 62.460938 50.976562 62.734375 53.164062 62.734375 C 54.617188 62.734375 56.109375 62.59375 57.628906 62.304688 C 58.074219 62.210938 58.882812 62.007812 60.050781 61.691406 C 60.085938 61.691406 60.542969 61.53125 61.433594 61.214844 C 62.128906 60.988281 62.574219 60.882812 62.765625 60.882812 L 63.140625 60.976562 L 63.140625 60.785156 L 64.230469 56.179688 M 51.121094 67.957031 L 51.121094 66.964844 L 50.976562 66.964844 C 49.867188 66.84375 49.117188 66.519531 48.726562 66.011719 C 48.324219 65.5 48.082031 64.496094 47.988281 63.003906 C 47.601562 62.941406 46.953125 62.75 46.039062 62.429688 C 45.5 62.613281 44.796875 62.808594 43.945312 63 C 43.910156 64.257812 43.757812 65.140625 43.472656 65.644531 C 43.058594 66.300781 42.261719 66.746094 41.09375 66.964844 L 40.945312 66.964844 L 41 67.0625 L 41 67.863281 L 40.945312 68.0625 L 41.09375 67.957031 L 51.121094 67.957031 M 45.035156 58.367188 C 43.496094 57.257812 42.273438 55.6875 41.390625 53.65625 C 40.511719 51.632812 40.070312 49.398438 40.070312 46.960938 C 40.070312 43.441406 41 40.703125 42.855469 38.742188 L 42.855469 35.3125 L 42.28125 35.078125 C 40.261719 36.3125 38.660156 38.027344 37.476562 40.214844 C 36.289062 42.394531 35.695312 44.714844 35.695312 47.148438 C 35.695312 50.09375 36.375 52.738281 37.738281 55.085938 C 38.554688 56.511719 39.964844 58.015625 41.957031 59.601562 C 43.121094 59.316406 44.148438 58.902344 45.035156 58.367188 M 58.390625 26.117188 C 57.792969 26.523438 56.964844 26.746094 55.917969 26.777344 C 55.34375 26.808594 54.507812 26.84375 53.402344 26.871094 C 52.609375 26.925781 52.054688 26.949219 51.742188 26.949219 L 38.863281 26.949219 C 37.785156 26.949219 36.515625 26.90625 35.058594 26.808594 C 34.203125 26.746094 33.457031 26.414062 32.824219 25.808594 C 37.164062 23.496094 41.359375 22.335938 45.417969 22.335938 C 49.882812 22.335938 54.207031 23.59375 58.390625 26.117188 M 55.917969 47.863281 C 55.917969 43.902344 54.703125 40.527344 52.261719 37.738281 C 51.53125 36.882812 50.390625 35.882812 48.835938 34.75 L 48.835938 38.6875 C 50.675781 41.605469 51.59375 44.570312 51.59375 47.574219 C 51.59375 51.632812 50.390625 54.886719 48 57.34375 C 45.597656 59.796875 42.445312 61.023438 38.542969 61.023438 C 36.804688 61.023438 35.480469 60.882812 34.566406 60.601562 C 33.8125 60.378906 33.433594 59.683594 33.433594 58.511719 L 33.386719 33.964844 L 33.625 33.964844 C 33.8125 33.964844 34.105469 33.914062 34.519531 33.816406 C 35.523438 33.582031 36.605469 33.457031 37.765625 33.457031 C 39.679688 33.457031 41.359375 33.742188 42.800781 34.296875 L 42.800781 32.542969 C 41.597656 32.390625 39.871094 32.320312 37.625 32.320312 C 37.183594 32.320312 35.816406 32.355469 33.535156 32.433594 C 32.023438 32.488281 30.890625 32.515625 30.160156 32.515625 C 29.148438 32.515625 28.214844 32.46875 27.359375 32.382812 L 27.214844 32.320312 L 27.265625 32.464844 L 27.265625 33.414062 L 27.359375 33.371094 L 27.597656 33.371094 C 28.484375 33.371094 29.066406 33.601562 29.355469 34.085938 C 29.542969 34.425781 29.640625 35.113281 29.640625 36.125 L 29.59375 58.984375 C 29.558594 59.804688 29.394531 60.371094 29.09375 60.695312 C 28.792969 61.007812 28.296875 61.1875 27.597656 61.214844 L 27.5 61.167969 L 27.550781 61.308594 L 27.550781 62.164062 L 27.5 62.257812 L 27.644531 62.210938 C 28.945312 62.113281 30.441406 62.066406 32.15625 62.066406 C 33.234375 62.066406 34.011719 62.085938 34.484375 62.113281 L 36.671875 62.257812 C 37.65625 62.324219 38.59375 62.351562 39.480469 62.351562 C 44.417969 62.351562 48.394531 61.023438 51.410156 58.367188 C 54.410156 55.707031 55.917969 52.207031 55.917969 47.863281 M 69.609375 46.59375 C 69.609375 53.285156 67.238281 58.996094 62.503906 63.734375 C 57.765625 68.476562 52.054688 70.84375 45.367188 70.84375 C 38.683594 70.84375 32.976562 68.476562 28.238281 63.734375 C 23.5 58.996094 21.132812 53.285156 21.132812 46.59375 C 21.132812 42.476562 22.121094 38.585938 24.101562 34.9375 C 26.082031 31.296875 28.785156 28.382812 32.210938 26.191406 C 32.363281 28 32.441406 29.171875 32.441406 29.707031 C 32.421875 29.675781 32.421875 29.820312 32.441406 30.140625 C 32.40625 30.425781 32.398438 30.722656 32.398438 31.035156 L 32.347656 31.375 L 32.347656 31.519531 L 32.398438 31.464844 C 32.742188 31.464844 33.039062 31.449219 33.296875 31.417969 L 33.386719 31.46875 L 33.386719 31.375 C 33.578125 30.394531 33.9375 29.71875 34.464844 29.339844 C 35.34375 28.738281 36.785156 28.445312 38.785156 28.445312 L 43.867188 28.445312 L 43.867188 55.609375 C 44.242188 56.402344 44.902344 57.160156 45.851562 57.886719 C 46.796875 57.21875 47.460938 56.464844 47.839844 55.609375 L 47.792969 28.445312 L 52.691406 28.445312 C 54.558594 28.445312 55.851562 28.628906 56.585938 29.007812 C 57.316406 29.390625 57.832031 30.140625 58.15625 31.277344 L 58.15625 31.417969 L 58.246094 31.417969 L 58.578125 31.46875 L 58.960938 31.5625 L 59.152344 31.660156 L 59.101562 31.46875 C 58.976562 30.679688 58.910156 29.644531 58.910156 28.382812 C 58.910156 27.90625 58.960938 27.285156 59.058594 26.523438 C 62.292969 28.652344 64.851562 31.527344 66.75 35.160156 C 68.652344 38.789062 69.609375 42.597656 69.609375 46.59375 M 70.703125 46.578125 C 70.703125 39.582031 68.222656 33.601562 63.285156 28.664062 C 58.335938 23.722656 52.371094 21.253906 45.371094 21.253906 C 38.398438 21.253906 32.433594 23.722656 27.476562 28.664062 C 22.519531 33.601562 20.039062 39.582031 20.039062 46.578125 C 20.039062 53.546875 22.515625 59.5 27.453125 64.445312 C 32.398438 69.386719 38.371094 71.859375 45.371094 71.859375 C 52.371094 71.859375 58.335938 69.386719 63.285156 64.445312 C 68.222656 59.5 70.703125 53.546875 70.703125 46.578125 M 71.789062 46.613281 C 71.789062 53.902344 69.210938 60.113281 64.042969 65.269531 C 58.882812 70.414062 52.65625 72.988281 45.371094 72.988281 C 38.085938 72.988281 31.859375 70.414062 26.695312 65.269531 C 21.53125 60.113281 18.949219 53.902344 18.949219 46.613281 C 18.949219 39.324219 21.53125 33.097656 26.695312 27.933594 C 31.859375 22.773438 38.085938 20.191406 45.371094 20.191406 C 52.65625 20.191406 58.882812 22.773438 64.042969 27.933594 C 69.210938 33.097656 71.789062 39.324219 71.789062 46.613281 " style=" stroke:none;fill-rule:nonzero;fill:rgb(0%,0%,0%);fill-opacity:1;"/>
</g>
</svg>