<?xml version="1.0" encoding="UTF-8"?><svg enable-background="new 0 0 212 100" height="100px" version="1.1" viewBox="0 0 212 100" width="212px" x="0px" xml:space="preserve" xmlns="http://www.w3.org/2000/svg" xmlns:xlink="http://www.w3.org/1999/xlink" y="0px">
<g id="surface1">
<path d="M 3.453125 37.71875 L 3.453125 40.570312 L 6.863281 41.242188 L 17.929688 66.839844 C 17.148438 68.40625 15.75 70.644531 13.511719 72.09375 L 8.761719 67.570312 C 8.425781 67.625 6.972656 67.960938 5.800781 69.023438 C 4.570312 70.082031 4.234375 71.425781 4.234375 72.488281 C 4.234375 73.546875 4.570312 74.945312 5.855469 76.175781 C 6.804688 77.070312 8.089844 77.742188 9.769531 77.742188 C 12.5625 77.742188 15.972656 76.066406 18.824219 72.65625 C 20.5 70.644531 21.675781 68.519531 22.570312 66.449219 L 33.410156 41.128906 L 36.488281 40.570312 L 36.488281 37.71875 L 24.582031 37.71875 L 24.582031 40.570312 L 27.597656 41.074219 L 28.160156 41.6875 L 22.625 56.109375 L 16.867188 41.6875 L 17.371094 41.074219 L 20.21875 40.570312 L 20.21875 37.71875 Z " style=" stroke:none;fill-rule:nonzero;fill:rgb(100%,100%,100%);fill-opacity:1;"/>
<path d="M 61.007812 51.472656 L 61.007812 50.6875 C 61.007812 48.394531 60.671875 44.597656 58.210938 41.464844 C 55.527344 38.054688 51.558594 36.878906 47.480469 36.878906 C 42.449219 36.878906 39.09375 38.445312 36.859375 40.289062 C 34.734375 42.023438 31.996094 45.433594 31.996094 51.527344 C 31.996094 57.285156 34.511719 60.695312 36.914062 62.539062 C 40.378906 65.277344 44.742188 65.726562 47.648438 65.726562 C 50.945312 65.726562 53.347656 65.277344 56.03125 64.4375 C 57.710938 63.9375 59.21875 63.320312 60.839844 62.539062 L 60.839844 57.394531 C 59.554688 58.066406 57.878906 58.847656 56.535156 59.296875 C 54.578125 59.96875 52.621094 60.359375 50.328125 60.359375 C 48.261719 60.359375 45.578125 60.023438 43.734375 57.730469 C 42.558594 56.277344 41.777344 53.761719 41.722656 51.472656 Z M 51.058594 47.949219 L 41.945312 47.949219 C 42.058594 45.265625 42.335938 43.253906 43.453125 41.855469 C 44.40625 40.683594 45.46875 40.402344 46.753906 40.402344 C 47.648438 40.402344 48.878906 40.570312 49.828125 41.855469 C 50.164062 42.304688 50.945312 43.699219 51.058594 47.949219 " style=" stroke:none;fill-rule:nonzero;fill:rgb(100%,100%,100%);fill-opacity:1;"/>
<path d="M 60.679688 65.277344 L 78.621094 65.277344 L 78.621094 62.316406 L 74.429688 62.035156 L 73.703125 61.308594 L 73.703125 45.210938 C 76.21875 44.929688 77.730469 45.378906 78.789062 46.382812 C 79.515625 47.054688 80.074219 48.003906 80.410156 48.898438 L 84.382812 48.898438 L 85.945312 38.113281 C 85.609375 37.886719 85.050781 37.496094 84.214844 37.273438 C 83.484375 37.046875 82.757812 37.046875 82.089844 37.046875 C 81.417969 37.046875 81.082031 37.105469 80.691406 37.160156 C 78.679688 38.277344 77.617188 39.171875 76.164062 40.457031 C 74.988281 41.464844 74.316406 42.078125 73.199219 43.308594 L 73.703125 36.9375 L 70.460938 36.9375 L 60.175781 40.234375 L 60.175781 42.917969 L 64.367188 42.917969 L 64.367188 61.308594 L 63.753906 62.035156 L 60.679688 62.316406 Z " style=" stroke:none;fill-rule:nonzero;fill:rgb(100%,100%,100%);fill-opacity:1;"/>
<path d="M 114.027344 51.472656 L 114.027344 50.6875 C 114.027344 48.394531 113.691406 44.597656 111.230469 41.464844 C 108.546875 38.054688 104.578125 36.878906 100.5 36.878906 C 95.46875 36.878906 92.113281 38.445312 89.878906 40.289062 C 87.753906 42.023438 85.015625 45.433594 85.015625 51.527344 C 85.015625 57.285156 87.53125 60.695312 89.933594 62.539062 C 93.398438 65.277344 97.757812 65.726562 100.664062 65.726562 C 103.964844 65.726562 106.367188 65.277344 109.050781 64.4375 C 110.726562 63.9375 112.238281 63.320312 113.859375 62.539062 L 113.859375 57.394531 C 112.570312 58.066406 110.894531 58.847656 109.554688 59.296875 C 107.597656 59.96875 105.640625 60.359375 103.347656 60.359375 C 101.28125 60.359375 98.597656 60.023438 96.753906 57.730469 C 95.578125 56.277344 94.796875 53.761719 94.742188 51.472656 Z M 104.074219 47.949219 L 94.964844 47.949219 C 95.074219 45.265625 95.355469 43.253906 96.472656 41.855469 C 97.421875 40.683594 98.484375 40.402344 99.773438 40.402344 C 100.664062 40.402344 101.894531 40.570312 102.84375 41.855469 C 103.179688 42.304688 103.964844 43.699219 104.074219 47.949219 " style=" stroke:none;fill-rule:nonzero;fill:rgb(100%,100%,100%);fill-opacity:1;"/>
<path d="M 111.378906 37.71875 L 111.378906 40.847656 L 114.789062 41.074219 L 124.121094 65.277344 L 131.222656 65.277344 L 141.058594 41.074219 L 144.414062 40.847656 L 144.414062 37.71875 L 132.730469 37.71875 L 132.730469 40.847656 L 135.582031 41.074219 L 135.917969 41.6875 L 130.046875 56.222656 L 124.625 41.6875 L 125.128906 41.074219 L 128.203125 40.847656 L 128.203125 37.71875 Z " style=" stroke:none;fill-rule:nonzero;fill:rgb(100%,100%,100%);fill-opacity:1;"/>
<path d="M 173.359375 65.277344 L 173.359375 62.316406 L 170.285156 62.035156 L 169.667969 61.308594 L 169.667969 48.730469 C 169.667969 44.59375 169.667969 42.023438 167.210938 39.730469 C 164.582031 37.328125 160.613281 36.878906 157.652344 36.878906 C 154.074219 36.878906 150.441406 37.441406 147.421875 38.894531 C 143.84375 40.625 143.230469 42.695312 143.230469 43.867188 C 143.230469 44.371094 143.285156 44.988281 143.84375 45.433594 C 144.070312 45.65625 144.738281 46.046875 146.582031 46.046875 L 153.234375 46.046875 L 153.234375 40.234375 C 154.746094 40.179688 157.371094 40.402344 158.65625 41.464844 C 160.109375 42.640625 160.335938 44.484375 160.335938 45.710938 L 160.335938 47.335938 C 158.433594 47.726562 155.527344 48.339844 152.789062 49.011719 C 150.496094 49.570312 147.421875 50.296875 145.1875 51.863281 C 142.390625 53.820312 141.886719 56.613281 141.886719 58.347656 C 141.886719 60.582031 142.839844 62.59375 144.125 63.824219 C 145.523438 65.167969 147.644531 66.003906 149.992188 66.003906 C 152.171875 66.003906 153.960938 65.390625 155.527344 64.71875 C 157.035156 64.046875 158.824219 63.042969 160.222656 62.148438 L 161.003906 65.277344 Z M 160.335938 59.410156 C 158.992188 59.96875 157.484375 60.46875 156.199219 60.46875 C 154.96875 60.46875 153.960938 60.132812 153.234375 59.574219 C 152.621094 59.074219 151.894531 58.066406 151.894531 56.5 C 151.894531 53.820312 153.792969 52.699219 155.136719 52.199219 C 155.527344 52.03125 157.09375 51.46875 160.335938 51.023438 Z " style=" stroke:none;fill-rule:nonzero;fill:rgb(100%,100%,100%);fill-opacity:1;"/>
<path d="M 171.992188 65.277344 L 187.925781 65.277344 L 187.925781 62.316406 L 185.578125 62.035156 L 184.851562 61.308594 L 184.851562 43.140625 C 185.910156 42.976562 186.582031 42.976562 187.644531 42.976562 C 189.378906 42.976562 191.558594 43.03125 192.84375 44.316406 C 194.128906 45.601562 194.183594 47.894531 194.183594 49.402344 L 194.183594 61.308594 L 193.515625 62.035156 L 191.332031 62.316406 L 191.332031 65.277344 L 207.152344 65.277344 L 207.152344 62.316406 L 204.132812 62.035156 L 203.519531 61.308594 L 203.519531 47.109375 C 203.519531 43.8125 202.960938 41.578125 202.011719 40.011719 C 200.390625 37.386719 197.929688 36.878906 195.636719 36.878906 C 193.851562 36.878906 192.621094 37.160156 191.054688 37.71875 C 189.265625 38.335938 186.75 39.507812 184.851562 40.570312 L 184.851562 36.9375 L 181.609375 36.9375 L 171.601562 40.234375 L 171.601562 42.917969 L 175.515625 42.917969 L 175.515625 61.308594 L 174.898438 62.035156 L 171.992188 62.316406 Z " style=" stroke:none;fill-rule:nonzero;fill:rgb(100%,100%,100%);fill-opacity:1;"/>
</g>
</svg>