<?xml version="1.0" encoding="UTF-8"?><svg enable-background="new 0 0 124 100" height="100px" version="1.1" viewBox="0 0 124 100" width="124px" x="0px" xml:space="preserve" xmlns="http://www.w3.org/2000/svg" xmlns:xlink="http://www.w3.org/1999/xlink" y="0px">
<g id="surface1">
<path d="M 106.199219 24.28125 L 87.621094 24.28125 L 83.429688 36.273438 C 85.96875 40.214844 87.453125 44.902344 87.453125 49.9375 C 87.453125 61.050781 80.265625 70.480469 70.292969 73.851562 L 69.675781 75.621094 L 88.394531 75.621094 L 96.636719 44.277344 L 104.929688 75.226562 L 122.746094 75.226562 Z " style=" stroke:none;fill-rule:nonzero;fill:rgb(100%,100%,100%);fill-opacity:1;"/>
<path d="M 74.078125 50.074219 C 74.078125 56.554688 68.824219 61.808594 62.34375 61.808594 C 55.859375 61.808594 50.605469 56.554688 50.605469 50.074219 C 50.605469 43.59375 55.859375 38.339844 62.34375 38.339844 C 68.824219 38.339844 74.078125 43.59375 74.078125 50.074219 " style=" stroke:none;fill-rule:nonzero;fill:rgb(100%,100%,100%);fill-opacity:1;"/>
<path d="M 36.960938 49.9375 C 36.960938 38.890625 44.058594 29.507812 53.941406 26.082031 L 54.527344 24.289062 L 36.710938 24.289062 L 28.417969 55.238281 L 20.171875 24.472656 L 1.453125 24.472656 L 19.402344 75.230469 L 37.980469 75.230469 L 41.503906 64.378906 C 38.644531 60.285156 36.960938 55.308594 36.960938 49.9375 " style=" stroke:none;fill-rule:nonzero;fill:rgb(100%,100%,100%);fill-opacity:1;"/>
</g>
</svg>