<?xml version="1.0" encoding="UTF-8"?><svg enable-background="new 0 0 203.925 199.072" height="199.072px" version="1.1" viewBox="0 0 203.925 199.072" width="203.925px" x="0px" xml:space="preserve" xmlns="http://www.w3.org/2000/svg" xmlns:xlink="http://www.w3.org/1999/xlink" y="0px">
<defs>
<clipPath id="clip1">
  <path d="M 0 0 L 203.925781 0 L 203.925781 199.070312 L 0 199.070312 Z "/>
</clipPath>
</defs>
<g id="surface1">
<g clip-path="url(#clip1)" clip-rule="nonzero">
<path d="M 199.546875 148.773438 C 194.027344 179.660156 156.359375 199.042969 102.019531 199.070312 C 102 199.070312 101.980469 199.070312 101.964844 199.070312 C 101.941406 199.070312 101.925781 199.070312 101.902344 199.070312 C 47.566406 199.042969 9.898438 179.660156 4.378906 148.773438 C -1.460938 116.09375 -1.460938 82.976562 4.378906 50.296875 C 9.898438 19.414062 47.566406 0.0273438 101.902344 0 C 101.925781 0 101.941406 0 101.964844 0 C 101.980469 0 102 0 102.019531 0 C 156.359375 0.0273438 194.027344 19.414062 199.546875 50.296875 C 205.386719 82.976562 205.386719 116.09375 199.546875 148.773438 " style=" stroke:none;fill-rule:nonzero;fill:rgb(100%,100%,100%);fill-opacity:1;"/>
</g>
<path d="M 160.5625 49.691406 C 158.394531 47.617188 155.417969 46.714844 152.527344 46.714844 C 146.75 46.714844 141.066406 50.414062 141.066406 58.359375 C 141.066406 61.15625 141.699219 64.132812 142.871094 67.113281 C 122.019531 57.457031 96.925781 50.144531 76.433594 50.144531 C 55.675781 50.144531 46.105469 57.273438 46.105469 66.574219 C 46.105469 71.625 48.8125 75.871094 51.070312 78.214844 L 51.070312 78.488281 L 40.148438 78.488281 L 39.335938 79.300781 C 39.96875 81.828125 40.960938 84.171875 42.226562 85.980469 L 50.890625 85.980469 L 50.890625 132.644531 C 53.6875 134.089844 57.570312 134.992188 60.730469 135.355469 L 61.632812 134.632812 C 61.179688 129.214844 61.089844 122.808594 61.089844 116.488281 L 61.089844 85.980469 L 70.929688 85.980469 L 71.742188 85.078125 C 71.199219 82.640625 70.117188 80.292969 68.851562 78.488281 L 58.382812 78.488281 C 56.667969 75.78125 55.945312 73.070312 55.945312 70.632812 C 55.945312 63.324219 63.527344 58.71875 78.332031 58.71875 C 94.398438 58.71875 121.660156 64.585938 147.925781 76.320312 C 150.183594 75.054688 151.714844 73.339844 152.167969 71.445312 C 149.640625 68.015625 148.015625 65.039062 148.015625 61.699219 C 148.015625 57.996094 150.453125 54.566406 155.417969 54.566406 C 157.675781 54.566406 159.660156 55.289062 161.464844 56.824219 L 162.277344 56.28125 C 162.097656 53.84375 161.464844 51.316406 160.5625 49.691406 M 107.035156 96.8125 C 102.972656 96.8125 99.179688 98.527344 96.5625 101.414062 C 93.40625 97.894531 89.792969 95.816406 84.738281 95.816406 C 75.621094 95.816406 70.929688 102.226562 70.929688 109.085938 C 70.929688 117.480469 77.96875 127.050781 90.878906 135.625 C 93.132812 134.269531 94.667969 132.375 95.390625 130.570312 C 85.007812 122.625 81.761719 115.496094 81.761719 111.164062 C 81.761719 106.921875 84.738281 104.84375 87.898438 104.84375 C 89.792969 104.84375 91.78125 105.65625 93.40625 107.550781 C 93.222656 108.546875 93.132812 109.539062 93.132812 110.621094 C 93.132812 112.066406 93.3125 114.140625 93.855469 115.945312 C 96.382812 118.113281 99.902344 119.285156 102.703125 119.648438 L 103.695312 119.015625 C 103.242188 117.210938 102.972656 115.40625 102.972656 113.78125 C 102.972656 108.636719 105.410156 104.84375 109.742188 104.84375 C 111.546875 104.84375 113.082031 105.476562 114.527344 107.28125 C 119.492188 118.835938 127.796875 125.335938 137.722656 125.335938 C 141.15625 125.335938 144.675781 124.523438 147.382812 122.898438 L 147.742188 123.167969 L 147.742188 132.644531 C 150.453125 134.089844 154.421875 134.992188 157.492188 135.355469 L 158.484375 134.632812 C 158.035156 129.214844 157.945312 122.808594 157.945312 116.488281 L 157.945312 85.980469 L 168.414062 85.980469 L 169.136719 85.078125 C 168.59375 82.640625 167.511719 80.292969 166.339844 78.488281 L 65.695312 78.488281 L 64.878906 79.300781 C 65.511719 81.828125 66.503906 84.171875 67.769531 85.980469 L 123.914062 85.980469 C 126.171875 88.144531 127.164062 90.671875 127.164062 92.929688 C 127.164062 97.261719 123.644531 99.246094 117.234375 100.960938 C 114.4375 98.253906 110.914062 96.8125 107.035156 96.8125 M 136.730469 96.902344 C 136.730469 93.019531 134.65625 89.410156 132.398438 86.25 L 132.398438 85.980469 L 147.742188 85.980469 L 147.742188 110.894531 C 144.3125 115.042969 139.4375 116.847656 135.738281 116.847656 C 129.511719 116.847656 125.628906 113.601562 124.183594 108.636719 C 133.84375 105.835938 136.730469 101.6875 136.730469 96.902344 " style=" stroke:none;fill-rule:nonzero;fill:rgb(6.278992%,5.741882%,5.058289%);fill-opacity:1;"/>
</g>
</svg>