<?xml version="1.0" encoding="UTF-8"?><svg enable-background="new 0 0 450 65" height="65px" version="1.1" viewBox="0 0 450 65" width="450px" x="0px" xml:space="preserve" xmlns="http://www.w3.org/2000/svg" xmlns:xlink="http://www.w3.org/1999/xlink" y="0px">
<g id="surface1">
<path d="M 379.269531 24.15625 L 379.03125 24.394531 C 379.167969 25.074219 379.476562 25.789062 379.816406 26.367188 L 385.1875 26.367188 L 385.5625 34.527344 C 384.949219 34.492188 384.472656 34.460938 383.964844 34.460938 C 382.261719 34.460938 381.617188 35.175781 381.617188 36.195312 C 381.617188 37.960938 384.335938 40.375 386.105469 40.375 C 387.566406 40.375 388.316406 38.675781 388.316406 35.785156 C 388.316406 32.894531 388.109375 29.324219 387.90625 26.367188 L 395.011719 26.367188 L 395.011719 44.558594 C 395.761719 44.964844 396.816406 45.273438 397.664062 45.40625 L 397.9375 45.203125 C 397.800781 43.164062 397.765625 40.851562 397.765625 38.472656 L 397.765625 26.367188 L 401.644531 26.367188 L 401.882812 26.097656 C 401.710938 25.414062 401.4375 24.703125 401.097656 24.15625 Z M 400.554688 24.15625 L 400.316406 24.394531 C 400.453125 25.074219 400.757812 25.789062 401.097656 26.367188 L 415.140625 26.367188 L 415.140625 29.222656 L 410.414062 29.222656 C 407.21875 29.222656 404.90625 30.71875 404.90625 32.929688 C 404.90625 35.480469 407.625 38.609375 409.90625 38.609375 C 410.789062 38.609375 411.742188 38.335938 413.066406 37.894531 C 414.222656 37.519531 414.835938 37.351562 415.414062 37.351562 C 416.601562 37.351562 417.214844 37.996094 417.214844 39.253906 C 417.214844 41.292969 415.378906 43.0625 412.523438 43.0625 C 409.667969 43.0625 406.640625 41.496094 403.273438 36.566406 C 402.800781 36.636719 402.015625 37.144531 401.746094 37.554688 C 404.636719 42.789062 408.679688 45.476562 413.238281 45.476562 C 416.875 45.476562 419.867188 43.300781 419.867188 39.832031 C 419.867188 37.078125 417.148438 34.902344 414.800781 34.902344 C 413.984375 34.902344 413.238281 35.003906 412.046875 35.410156 C 410.789062 35.820312 410.109375 36.023438 409.359375 36.023438 C 408.136719 36.023438 407.558594 34.527344 407.558594 33.710938 C 407.558594 32.453125 408.75 31.636719 411.230469 31.636719 L 417.726562 31.636719 L 417.964844 31.433594 C 417.859375 30.074219 417.859375 28.273438 417.859375 26.910156 L 417.859375 26.367188 L 421.941406 26.367188 L 422.179688 26.097656 C 422.007812 25.414062 421.738281 24.703125 421.398438 24.15625 Z " style=" stroke:none;fill-rule:nonzero;fill:rgb(69.999695%,69.999695%,69.999695%);fill-opacity:1;"/>
<path d="M 287.949219 24.15625 L 287.710938 24.394531 C 287.847656 25.074219 288.152344 25.789062 288.492188 26.367188 L 295.496094 26.367188 L 295.496094 28.476562 C 294 28.644531 292.097656 29.359375 290.15625 31.195312 C 290.394531 31.910156 291.007812 32.863281 291.824219 33.234375 C 293.386719 31.84375 295.15625 30.820312 296.992188 30.820312 C 298.523438 30.820312 299.542969 31.570312 299.542969 33.066406 C 299.542969 34.765625 298.316406 36.328125 295.191406 37.351562 C 294.304688 36.566406 293.488281 36.09375 292.605469 36.09375 C 291.722656 36.09375 290.804688 37.382812 290.804688 38.847656 C 290.804688 39.867188 291.585938 40.476562 292.808594 40.476562 C 293.355469 40.476562 293.863281 40.410156 294.40625 40.308594 C 296.480469 41.601562 298.417969 43.46875 300.9375 46.222656 C 301.582031 45.984375 302.195312 45.511719 302.464844 44.933594 C 301.171875 43.230469 299.03125 40.953125 297.160156 39.320312 C 300.492188 37.960938 302.160156 35.886719 302.160156 33.746094 C 302.160156 31.46875 300.324219 29.496094 298.078125 28.746094 L 298.078125 26.367188 L 306.410156 26.367188 L 306.410156 44.558594 C 307.15625 44.964844 308.210938 45.273438 309.097656 45.40625 L 309.332031 45.203125 C 309.199219 43.164062 309.164062 40.851562 309.164062 38.472656 L 309.164062 26.367188 L 313.039062 26.367188 L 313.277344 26.097656 C 313.109375 25.414062 312.835938 24.703125 312.496094 24.15625 Z M 325.414062 39.355469 C 325.179688 38.609375 325.074219 37.691406 325.074219 37.078125 C 325.074219 34.390625 326.707031 33.132812 328.40625 33.132812 C 329.9375 33.132812 331.195312 34.1875 331.195312 36.398438 C 331.195312 38.574219 329.734375 41.023438 326.84375 43.199219 C 327.148438 43.980469 327.964844 44.828125 328.746094 45.238281 C 332.316406 42.449219 333.679688 39.527344 333.679688 36.90625 C 333.679688 33.914062 332.011719 32.011719 329.9375 31.265625 L 329.9375 26.367188 L 335.886719 26.367188 L 336.125 26.097656 C 335.957031 25.414062 335.683594 24.703125 335.34375 24.15625 L 311.953125 24.15625 L 311.714844 24.394531 C 311.851562 25.074219 312.15625 25.789062 312.496094 26.367188 L 327.183594 26.367188 L 327.183594 30.992188 C 325.753906 31.195312 324.363281 31.976562 323.445312 33.167969 C 322.050781 31.433594 320.484375 30.6875 318.71875 30.6875 C 315.761719 30.6875 313.789062 32.761719 313.789062 35.515625 C 313.789062 38.574219 316.167969 42.074219 320.894531 45.339844 C 321.503906 44.964844 322.015625 44.421875 322.21875 43.808594 C 318.070312 40.816406 316.710938 38.03125 316.710938 36.160156 C 316.710938 34.324219 317.96875 33.203125 319.464844 33.203125 C 320.484375 33.203125 321.609375 33.746094 322.558594 35.003906 C 322.457031 35.410156 322.390625 35.855469 322.390625 36.328125 C 322.390625 36.941406 322.527344 37.691406 322.660156 38.03125 C 322.96875 38.847656 324.429688 39.355469 325.074219 39.527344 Z M 354.792969 24.15625 L 354.554688 24.394531 C 354.691406 25.074219 354.960938 25.789062 355.300781 26.367188 L 358.429688 26.367188 L 358.429688 34.289062 L 352.683594 34.289062 L 352.546875 29.054688 C 352.480469 26.402344 350.132812 23.683594 347.210938 23.683594 C 344.898438 23.683594 343.570312 25.074219 343.570312 26.945312 C 343.570312 28.953125 345.441406 30.6875 347.992188 31.296875 C 348.367188 30.890625 348.535156 30.378906 348.605469 29.871094 C 347.074219 29.359375 346.019531 28.441406 346.019531 27.355469 C 346.019531 26.503906 346.769531 25.824219 347.753906 25.824219 C 349.011719 25.824219 349.828125 27.015625 349.863281 28.511719 L 350.03125 34.289062 L 349.113281 34.289062 C 347.515625 34.289062 346.632812 34.96875 346.632812 36.023438 C 346.632812 37.859375 349.351562 40.613281 351.1875 40.613281 C 352.070312 40.613281 352.785156 39.765625 352.785156 37.757812 L 352.785156 36.703125 L 358.429688 36.703125 L 358.429688 44.558594 C 359.179688 44.964844 360.265625 45.273438 361.117188 45.40625 L 361.355469 45.203125 C 361.25 43.164062 361.21875 40.851562 361.21875 38.472656 L 361.21875 36.703125 L 363.972656 36.703125 C 366.894531 36.703125 367.746094 37.417969 367.746094 38.539062 C 367.746094 39.796875 366.417969 41.464844 364.789062 42.585938 C 364.992188 43.503906 365.671875 44.285156 366.589844 44.796875 C 368.664062 43.402344 370.023438 41.496094 370.023438 39.1875 C 370.023438 36.703125 368.222656 34.257812 363.734375 34.257812 L 361.21875 34.257812 L 361.21875 26.367188 L 370.703125 26.367188 L 370.941406 26.097656 C 370.804688 25.414062 370.5 24.703125 370.160156 24.15625 Z M 361.011719 16.882812 C 362 20.722656 364.414062 22.660156 367.199219 22.660156 C 370.738281 22.660156 372.097656 19.601562 372.097656 16.949219 C 371.621094 16.710938 370.703125 16.574219 370.058594 16.542969 L 369.785156 16.746094 C 369.785156 18.71875 368.902344 20.417969 366.757812 20.417969 C 365.125 20.417969 363.664062 19.363281 362.578125 16.339844 C 362.03125 16.40625 361.453125 16.574219 361.011719 16.882812 M 366.589844 18.140625 C 367.609375 18.140625 368.152344 17.289062 368.152344 16.472656 C 368.152344 15.316406 367.304688 14.535156 366.488281 14.535156 C 365.433594 14.535156 364.855469 15.421875 364.855469 16.269531 C 364.855469 17.390625 365.773438 18.140625 366.589844 18.140625 M 369.375 24.394531 C 369.511719 25.074219 369.820312 25.789062 370.160156 26.367188 L 373.730469 26.367188 L 373.730469 44.558594 C 374.511719 44.964844 375.566406 45.273438 376.414062 45.40625 L 376.6875 45.203125 C 376.550781 43.164062 376.515625 40.851562 376.515625 38.472656 L 376.515625 26.367188 L 380.359375 26.367188 L 380.597656 26.097656 C 380.460938 25.414062 380.15625 24.703125 379.816406 24.15625 L 369.613281 24.15625 Z " style=" stroke:none;fill-rule:nonzero;fill:rgb(0%,0%,0%);fill-opacity:1;"/>
<path d="M 263.058594 24.15625 L 262.820312 24.394531 C 262.957031 25.074219 263.265625 25.789062 263.605469 26.367188 L 274.824219 26.367188 L 274.824219 31.332031 L 274.722656 31.367188 C 273.429688 30.449219 271.933594 29.871094 270.269531 29.871094 C 267.378906 29.871094 264.453125 31.636719 264.453125 35.070312 C 264.453125 38.8125 267.855469 41.125 270.710938 41.125 C 271.933594 41.125 273.464844 40.714844 274.722656 39.765625 L 274.824219 39.832031 L 274.824219 44.558594 C 275.570312 44.964844 276.660156 45.273438 277.511719 45.40625 L 277.746094 45.203125 C 277.613281 43.164062 277.578125 41.125 277.578125 38.742188 L 277.578125 37.621094 C 279.652344 35.582031 281.214844 34.527344 282.8125 34.527344 C 284.140625 34.527344 284.75 35.308594 284.75 36.535156 C 284.75 38.371094 283.359375 40.34375 281.078125 41.90625 C 281.351562 42.824219 281.964844 43.605469 282.78125 44.117188 C 285.703125 42.210938 287.269531 39.765625 287.269531 37.316406 C 287.269531 34.289062 285.058594 32.078125 282.03125 32.078125 C 280.398438 32.078125 278.9375 32.828125 277.679688 33.882812 L 277.578125 33.847656 L 277.578125 26.367188 L 289 26.367188 L 289.238281 26.097656 C 289.105469 25.414062 288.796875 24.703125 288.492188 24.15625 Z M 269.792969 38.8125 C 269.113281 38.8125 268.5 38.675781 268.160156 38.371094 C 267.546875 37.859375 267.207031 37.011719 267.207031 35.921875 C 267.207031 33.371094 269.113281 32.25 271.117188 32.25 C 272.445312 32.25 273.667969 32.761719 274.824219 33.542969 L 274.824219 36.160156 C 273.496094 37.757812 271.492188 38.8125 269.792969 38.8125 M 273.734375 49.386719 C 274.890625 48.503906 275.945312 48.09375 276.691406 48.09375 C 277.714844 48.09375 278.460938 48.773438 278.460938 49.996094 C 278.460938 51.5625 277.101562 52.140625 275.671875 52.140625 C 273.632812 52.140625 270.914062 50.78125 268.058594 46.222656 C 267.511719 46.257812 266.902344 46.734375 266.695312 47.074219 C 269.65625 52.140625 273.191406 54.28125 276.320312 54.28125 C 279.105469 54.28125 280.601562 52.515625 280.601562 50.472656 C 280.601562 48.332031 278.765625 46.089844 275.945312 46.089844 C 274.722656 46.089844 273.53125 46.496094 272.273438 47.515625 C 272.339844 48.46875 273.019531 49.183594 273.734375 49.386719 " style=" stroke:none;fill-rule:nonzero;fill:rgb(69.999695%,69.999695%,69.999695%);fill-opacity:1;"/>
<path d="M 30.371094 13.210938 C 19.015625 13.210938 12.589844 15.828125 12.589844 20.214844 C 12.589844 21.710938 13.304688 23.105469 14.324219 24.089844 L 14.324219 24.15625 L 10.140625 24.15625 L 9.902344 24.394531 C 10.039062 25.074219 10.34375 25.789062 10.6875 26.367188 L 14.253906 26.367188 L 14.253906 44.558594 C 15.039062 44.964844 16.089844 45.273438 16.941406 45.40625 L 17.214844 45.203125 C 17.078125 43.164062 17.042969 40.851562 17.042969 38.472656 L 17.042969 26.367188 L 20.816406 26.367188 L 21.054688 26.097656 C 20.917969 25.414062 20.613281 24.703125 20.273438 24.15625 L 16.296875 24.15625 C 15.582031 23.070312 15.34375 22.050781 15.34375 21.234375 C 15.34375 17.628906 21.089844 15.625 30.40625 15.625 C 41.25 15.625 62.128906 18.378906 80.386719 23.070312 C 80.691406 22.660156 80.863281 22.152344 80.929688 21.574219 C 64.609375 16.644531 43.324219 13.210938 30.371094 13.210938 M 19.492188 24.15625 L 19.253906 24.394531 C 19.390625 25.074219 19.695312 25.789062 20.035156 26.367188 L 31.253906 26.367188 L 31.253906 31.332031 L 31.152344 31.367188 C 29.863281 30.449219 28.367188 29.871094 26.699219 29.871094 C 23.808594 29.871094 20.886719 31.636719 20.886719 35.070312 C 20.886719 38.8125 24.285156 41.125 27.140625 41.125 C 28.367188 41.125 29.894531 40.714844 31.152344 39.765625 L 31.253906 39.832031 L 31.253906 44.558594 C 32.003906 44.964844 33.089844 45.273438 33.941406 45.40625 L 34.179688 45.203125 C 34.042969 43.164062 34.007812 41.125 34.007812 38.742188 L 34.007812 37.824219 C 36.1875 35.785156 37.816406 34.902344 39.347656 34.902344 C 40.09375 34.902344 40.671875 35.105469 41.148438 35.445312 C 41.828125 38.878906 46.488281 43.503906 51.757812 45.644531 C 52.472656 45.238281 52.742188 44.488281 52.742188 43.777344 C 49.378906 42.007812 46.792969 40.070312 45.398438 37.316406 C 46.046875 37.011719 46.625 36.535156 47.03125 35.957031 C 49.039062 36.5 51.078125 36.738281 53.152344 36.738281 C 54.273438 36.738281 55.394531 36.671875 56.550781 36.535156 C 57.777344 38.675781 60.085938 40.105469 62.671875 40.105469 C 63.351562 40.105469 64.609375 40.003906 65.9375 39.289062 C 67.058594 41.292969 69.0625 43.335938 71.917969 45.304688 C 72.496094 44.964844 73.007812 44.386719 73.210938 43.808594 C 69.0625 40.816406 67.738281 38.03125 67.738281 36.160156 C 67.738281 34.359375 68.960938 33.167969 70.492188 33.167969 C 71.410156 33.167969 72.429688 33.679688 73.3125 34.699219 C 73.210938 35.105469 73.144531 35.546875 73.144531 36.023438 C 73.144531 36.738281 73.210938 37.484375 73.382812 38.164062 C 74.09375 38.878906 74.84375 39.253906 75.863281 39.492188 L 76.167969 39.253906 C 75.964844 38.507812 75.863281 37.757812 75.863281 37.113281 C 75.863281 34.765625 77.222656 33.203125 79.09375 33.203125 C 79.738281 33.203125 80.285156 33.339844 80.792969 33.574219 L 80.792969 44.558594 C 81.542969 44.964844 82.628906 45.273438 83.480469 45.40625 L 83.71875 45.203125 C 83.617188 43.164062 83.582031 40.851562 83.582031 38.472656 L 83.582031 26.367188 L 87.421875 26.367188 L 87.660156 26.097656 C 87.527344 25.414062 87.21875 24.703125 86.878906 24.15625 Z M 80.792969 26.367188 L 80.792969 31.46875 L 80.726562 31.46875 C 80.078125 31.128906 79.296875 30.890625 78.449219 30.890625 C 76.679688 30.890625 75.117188 31.671875 74.164062 32.894531 C 72.871094 31.367188 71.410156 30.6875 69.742188 30.6875 C 66.957031 30.6875 64.8125 32.792969 64.8125 35.515625 C 64.8125 35.957031 64.847656 36.398438 64.949219 36.839844 C 63.996094 37.453125 62.945312 37.691406 61.992188 37.691406 C 60.835938 37.691406 59.78125 37.382812 59.238281 36.773438 C 58.625 36.058594 58.386719 34.5625 58.386719 33.101562 L 58.386719 26.367188 Z M 38.703125 32.351562 C 36.898438 32.351562 35.371094 33.132812 34.113281 34.1875 L 34.007812 34.152344 L 34.007812 26.367188 L 45.773438 26.367188 L 45.773438 28.441406 C 45.773438 30.210938 45.671875 31.570312 45.367188 32.726562 L 43.53125 32.726562 C 42.714844 32.726562 42.101562 32.894531 41.695312 33.203125 C 40.84375 32.65625 39.824219 32.351562 38.703125 32.351562 M 55.667969 34.050781 C 54.410156 34.257812 53.050781 34.359375 51.722656 34.359375 C 50.433594 34.359375 49.140625 34.257812 47.914062 34.085938 C 48.253906 32.996094 48.425781 31.671875 48.425781 30.210938 C 48.425781 29.15625 48.324219 27.660156 48.1875 26.367188 L 55.601562 26.367188 L 55.601562 32.894531 C 55.601562 33.304688 55.632812 33.679688 55.667969 34.050781 M 26.222656 38.8125 C 25.542969 38.8125 24.828125 38.640625 24.589844 38.371094 C 24.015625 37.824219 23.640625 37.011719 23.640625 35.921875 C 23.640625 33.371094 25.542969 32.25 27.550781 32.25 C 28.875 32.25 30.101562 32.761719 31.253906 33.542969 L 31.253906 36.160156 C 29.929688 37.757812 27.921875 38.8125 26.222656 38.8125 M 107.957031 24.15625 L 107.71875 24.394531 C 107.855469 25.074219 108.164062 25.789062 108.503906 26.367188 L 114.113281 26.367188 L 114.488281 34.152344 C 113.433594 34.222656 112.3125 34.222656 111.257812 34.222656 C 108.503906 34.222656 106.191406 33.847656 104.421875 33.203125 L 104.421875 33.132812 C 106.257812 31.945312 107.210938 30.378906 107.210938 28.851562 C 107.210938 26.503906 105 23.683594 101.804688 23.683594 C 99.664062 23.683594 97.351562 25.007812 97.351562 27.964844 C 97.351562 29.9375 98.472656 31.605469 100.207031 32.964844 L 100.207031 32.996094 C 97.726562 34.359375 95.921875 36.195312 95.921875 38.4375 C 95.921875 41.429688 99.085938 44.488281 103.097656 44.488281 C 103.574219 44.488281 104.046875 44.457031 104.523438 44.355469 L 106.699219 50.167969 C 107.71875 50.132812 108.875 49.65625 109.320312 49.011719 L 106.429688 43.640625 C 107.3125 43.128906 107.957031 42.382812 107.957031 41.429688 C 107.957031 39.832031 105.953125 38.675781 104.625 38.675781 C 103.640625 38.675781 103.097656 39.289062 103.097656 40.410156 C 103.097656 40.816406 103.199219 41.363281 103.367188 41.90625 C 102.894531 42.074219 102.347656 42.179688 101.90625 42.179688 C 100.785156 42.179688 99.96875 41.871094 99.390625 41.261719 C 98.878906 40.714844 98.574219 39.96875 98.574219 39.050781 C 98.574219 37.382812 100.308594 35.886719 102.65625 34.492188 C 105.410156 35.855469 108.671875 36.671875 111.1875 36.773438 C 111.394531 38.609375 113.941406 41.089844 115.675781 41.089844 C 116.59375 41.089844 117.273438 40.308594 117.273438 38.269531 L 117.273438 37.316406 L 125.0625 37.316406 C 126.929688 39.867188 129.414062 41.023438 131.960938 41.023438 C 133.355469 41.023438 135.023438 40.613281 136.210938 39.660156 L 136.28125 39.695312 L 136.28125 44.558594 C 137.0625 44.964844 138.117188 45.273438 138.964844 45.40625 L 139.238281 45.203125 C 139.101562 43.164062 139.070312 40.851562 139.070312 38.472656 L 139.070312 26.367188 L 142.910156 26.367188 L 143.148438 26.097656 C 143.011719 25.414062 142.707031 24.703125 142.367188 24.15625 Z M 131.042969 30.480469 C 131.042969 28.953125 130.261719 27.558594 129.242188 26.4375 L 129.242188 26.367188 L 136.28125 26.367188 L 136.28125 35.957031 C 135.125 37.792969 133.117188 38.640625 131.453125 38.640625 C 128.867188 38.640625 127.066406 37.316406 126.351562 34.664062 C 129.414062 33.8125 131.042969 32.421875 131.042969 30.480469 M 126.828125 26.367188 C 127.847656 27.488281 128.324219 28.542969 128.324219 29.5625 C 128.324219 31.332031 126.589844 32.078125 123.667969 32.792969 C 123.394531 33.269531 123.328125 33.78125 123.359375 34.289062 L 123.667969 35.003906 L 117.171875 34.800781 C 117.140625 32.453125 117.003906 29.15625 116.832031 26.367188 Z M 99.96875 28.375 C 99.96875 26.84375 101.058594 25.757812 102.382812 25.757812 C 103.0625 25.757812 103.640625 25.992188 104.046875 26.4375 C 104.523438 26.878906 104.761719 27.488281 104.761719 28.171875 C 104.761719 29.53125 103.640625 30.925781 101.871094 31.875 C 100.613281 30.890625 99.96875 29.699219 99.96875 28.375 M 195.847656 14.875 C 195.03125 13.855469 194.011719 13.414062 192.824219 13.414062 C 190.714844 13.414062 188.8125 14.808594 188.8125 17.5625 C 188.8125 18.546875 189.046875 19.601562 189.457031 20.65625 C 180.546875 16.40625 170.484375 13.855469 163.175781 13.855469 C 155.832031 13.855469 151.75 16.40625 151.75 19.941406 C 151.75 21.574219 152.632812 23.035156 153.65625 24.089844 L 153.65625 24.15625 L 149.507812 24.15625 L 149.269531 24.394531 C 149.40625 25.074219 149.710938 25.789062 150.050781 26.367188 L 153.621094 26.367188 L 153.621094 44.558594 C 154.402344 44.964844 155.457031 45.273438 156.308594 45.40625 L 156.578125 45.203125 C 156.441406 43.164062 156.410156 40.851562 156.410156 38.472656 L 156.410156 26.367188 L 160.183594 26.367188 L 160.421875 26.097656 C 160.285156 25.414062 159.980469 24.703125 159.640625 24.15625 L 155.660156 24.15625 C 154.878906 23.003906 154.539062 21.847656 154.539062 20.859375 C 154.539062 18.003906 157.9375 16.234375 163.480469 16.234375 C 169.871094 16.234375 180.445312 18.648438 190.679688 23.070312 L 190.78125 23.070312 C 191.359375 22.832031 191.800781 22.355469 191.9375 21.914062 C 191.292969 20.824219 190.679688 19.773438 190.679688 18.617188 C 190.679688 17.152344 191.667969 15.828125 193.46875 15.828125 C 194.386719 15.828125 195.238281 16.203125 195.984375 17.019531 L 196.257812 16.847656 C 196.222656 16.203125 196.085938 15.488281 195.847656 14.875 M 194.320312 21.199219 C 195.339844 21.199219 195.882812 20.382812 195.882812 19.566406 C 195.882812 18.410156 195.03125 17.664062 194.214844 17.664062 C 193.195312 17.664062 192.617188 18.515625 192.617188 19.363281 C 192.617188 20.453125 193.535156 21.199219 194.320312 21.199219 M 178.949219 32.078125 C 177.25 32.078125 175.484375 32.691406 173.578125 34.1875 L 173.476562 34.152344 L 173.476562 26.367188 L 181.976562 26.367188 L 182.214844 26.097656 C 182.078125 25.414062 181.773438 24.703125 181.433594 24.15625 L 158.957031 24.15625 L 158.71875 24.394531 C 158.855469 25.074219 159.164062 25.789062 159.503906 26.367188 L 170.722656 26.367188 L 170.722656 31.332031 L 170.621094 31.367188 C 169.328125 30.449219 167.832031 29.871094 166.167969 29.871094 C 163.277344 29.871094 160.351562 31.636719 160.351562 35.070312 C 160.351562 38.8125 163.753906 41.125 166.609375 41.125 C 167.832031 41.125 169.363281 40.714844 170.621094 39.765625 L 170.722656 39.832031 L 170.722656 44.558594 C 171.46875 44.964844 172.558594 45.273438 173.410156 45.40625 L 173.648438 45.203125 C 173.511719 43.164062 173.476562 41.125 173.476562 38.742188 L 173.476562 37.722656 C 175.855469 35.445312 177.691406 34.492188 179.628906 34.492188 C 180.515625 34.492188 181.363281 34.664062 182.25 34.96875 L 182.214844 32.929688 C 181.261719 32.386719 180.105469 32.078125 178.949219 32.078125 M 165.691406 38.8125 C 165.011719 38.8125 164.398438 38.675781 164.023438 38.335938 C 163.445312 37.824219 163.105469 37.011719 163.105469 35.921875 C 163.105469 33.371094 165.011719 32.25 167.015625 32.25 C 168.34375 32.25 169.566406 32.761719 170.722656 33.542969 L 170.722656 36.160156 C 169.398438 37.757812 167.390625 38.8125 165.691406 38.8125 M 178.882812 24.15625 L 178.644531 24.394531 C 178.78125 25.074219 179.085938 25.789062 179.425781 26.367188 L 190.648438 26.367188 L 190.648438 31.332031 L 190.542969 31.367188 C 189.253906 30.449219 187.757812 29.871094 186.089844 29.871094 C 183.199219 29.871094 180.277344 31.636719 180.277344 35.070312 C 180.277344 38.8125 183.675781 41.125 186.53125 41.125 C 187.757812 41.125 189.285156 40.714844 190.542969 39.765625 L 190.648438 39.832031 L 190.648438 44.558594 C 191.394531 44.964844 192.484375 45.273438 193.332031 45.40625 L 193.570312 45.203125 C 193.433594 43.164062 193.402344 41.125 193.402344 38.742188 L 193.402344 37.621094 C 195.476562 35.582031 197.039062 34.527344 198.636719 34.527344 C 199.960938 34.527344 200.574219 35.308594 200.574219 36.535156 C 200.574219 38.371094 199.179688 40.34375 196.902344 41.90625 C 197.175781 42.824219 197.785156 43.605469 198.601562 44.117188 C 201.527344 42.210938 203.089844 39.765625 203.089844 37.316406 C 203.089844 34.289062 200.878906 32.078125 197.855469 32.078125 C 196.222656 32.078125 194.761719 32.828125 193.503906 33.882812 L 193.402344 33.847656 L 193.402344 26.367188 L 204.824219 26.367188 L 205.0625 26.097656 C 204.925781 25.414062 204.621094 24.703125 204.316406 24.15625 Z M 185.613281 38.8125 C 184.933594 38.8125 184.324219 38.675781 183.984375 38.371094 C 183.371094 37.859375 183.03125 37.011719 183.03125 35.921875 C 183.03125 33.371094 184.933594 32.25 186.941406 32.25 C 188.265625 32.25 189.492188 32.761719 190.648438 33.542969 L 190.648438 36.160156 C 189.320312 37.757812 187.316406 38.8125 185.613281 38.8125 " style=" stroke:none;fill-rule:nonzero;fill:rgb(0%,0%,0%);fill-opacity:1;"/>
</g>
</svg>