<?xml version="1.0" encoding="UTF-8"?><svg enable-background="new 0 0 450 65" height="65px" version="1.1" viewBox="0 0 450 65" width="450px" x="0px" xml:space="preserve" xmlns="http://www.w3.org/2000/svg" xmlns:xlink="http://www.w3.org/1999/xlink" y="0px">
<g id="surface1">
<path d="M 75.859375 24.15625 L 75.621094 24.394531 C 75.757812 25.074219 76.066406 25.789062 76.40625 26.367188 L 90.550781 26.367188 L 90.550781 30.6875 C 86.300781 30.378906 85.617188 30.347656 85.074219 30.347656 C 80.246094 30.347656 77.730469 32.523438 77.730469 36.160156 C 77.730469 39.117188 80.144531 42.621094 83.273438 45.304688 C 83.953125 45.171875 84.496094 44.660156 84.699219 44.117188 C 82.082031 41.125 80.65625 38.777344 80.65625 36.738281 C 80.65625 34.257812 82.761719 32.964844 85.652344 32.964844 C 86.09375 32.964844 86.640625 32.996094 89.800781 33.269531 L 89.800781 33.339844 L 83.203125 38.914062 C 83.578125 39.765625 84.054688 40.273438 85.074219 40.785156 L 90.445312 35.445312 L 90.550781 35.445312 L 90.550781 44.558594 C 91.296875 44.964844 92.386719 45.273438 93.234375 45.40625 L 93.472656 45.203125 C 93.371094 43.164062 93.335938 40.851562 93.335938 38.472656 L 93.335938 26.367188 L 97.179688 26.367188 L 97.417969 26.097656 C 97.28125 25.414062 96.976562 24.703125 96.636719 24.15625 Z M 103.773438 24.15625 L 103.535156 24.394531 C 103.671875 25.074219 103.976562 25.789062 104.316406 26.367188 L 116.386719 26.367188 L 116.386719 29.019531 L 111.695312 29.019531 C 108.5 29.019531 106.324219 30.585938 106.324219 32.625 C 106.324219 34.152344 107.140625 35.445312 108.5 36.636719 C 107.308594 37.519531 106.699219 38.777344 106.699219 40.273438 C 106.699219 44.082031 110.402344 47.449219 118.664062 49.011719 C 119.039062 48.46875 119.175781 47.890625 119.140625 47.074219 C 112.988281 45.882812 109.589844 43.539062 109.589844 40.75 C 109.589844 38.472656 111.898438 37.417969 115.164062 37.417969 C 117.136719 37.417969 119.753906 37.691406 121.863281 38.164062 C 122.746094 39.660156 124.515625 41.089844 125.839844 41.089844 C 126.757812 41.089844 127.4375 40.308594 127.4375 38.269531 L 127.4375 37.316406 L 135.496094 37.316406 C 137.367188 39.867188 139.847656 41.023438 142.398438 41.023438 C 143.792969 41.023438 145.457031 40.613281 146.648438 39.660156 L 146.714844 39.695312 L 146.714844 44.558594 C 147.496094 44.964844 148.550781 45.273438 149.402344 45.40625 L 149.675781 45.203125 C 149.539062 43.164062 149.503906 40.851562 149.503906 38.472656 L 149.503906 26.367188 L 153.347656 26.367188 L 153.582031 26.097656 C 153.449219 25.414062 153.140625 24.703125 152.800781 24.15625 Z M 123.765625 34.765625 C 122.609375 34.765625 121.894531 35.140625 121.554688 35.71875 C 119.039062 35.242188 116.863281 35.003906 114.824219 35.003906 C 112.988281 35.003906 111.457031 35.242188 110.234375 35.71875 C 109.382812 34.96875 108.976562 34.222656 108.976562 33.441406 C 108.976562 32.386719 109.960938 31.46875 112.648438 31.46875 L 118.972656 31.46875 L 119.210938 31.230469 C 119.140625 29.835938 119.109375 28.273438 119.109375 26.367188 L 124.277344 26.367188 L 124.71875 34.765625 Z M 127.335938 34.800781 C 127.300781 32.453125 127.164062 29.15625 126.996094 26.367188 L 137.265625 26.367188 C 138.285156 27.488281 138.761719 28.542969 138.761719 29.5625 C 138.761719 31.332031 137.027344 32.078125 134.101562 32.792969 C 133.828125 33.269531 133.761719 33.78125 133.796875 34.289062 L 134.101562 35.039062 C 131.992188 34.9375 129.613281 34.867188 127.335938 34.800781 M 141.480469 30.480469 C 141.480469 28.953125 140.699219 27.558594 139.679688 26.4375 L 139.679688 26.367188 L 146.714844 26.367188 L 146.714844 35.957031 C 145.558594 37.792969 143.554688 38.640625 141.886719 38.640625 C 139.304688 38.640625 137.5 37.316406 136.789062 34.664062 C 139.847656 33.8125 141.480469 32.421875 141.480469 30.480469 M 179.1875 32.351562 C 177.382812 32.351562 175.855469 33.132812 174.597656 34.1875 L 174.492188 34.152344 L 174.492188 26.367188 L 183.027344 26.367188 L 183.265625 26.097656 C 183.128906 25.414062 182.824219 24.703125 182.519531 24.15625 L 159.976562 24.15625 L 159.738281 24.394531 C 159.875 25.074219 160.179688 25.789062 160.519531 26.367188 L 171.738281 26.367188 L 171.738281 31.332031 L 171.636719 31.367188 C 170.347656 30.449219 168.851562 29.871094 167.183594 29.871094 C 164.292969 29.871094 161.371094 31.636719 161.371094 35.070312 C 161.371094 38.8125 164.769531 41.125 167.625 41.125 C 168.851562 41.125 170.378906 40.714844 171.636719 39.765625 L 171.738281 39.832031 L 171.738281 44.558594 C 172.488281 44.964844 173.574219 45.273438 174.425781 45.40625 L 174.664062 45.203125 C 174.527344 43.164062 174.492188 41.125 174.492188 38.742188 L 174.492188 37.824219 C 176.667969 35.785156 178.300781 34.902344 179.832031 34.902344 C 181.15625 34.902344 181.871094 35.445312 182.621094 36.398438 L 183.980469 35.207031 C 183.128906 33.472656 181.328125 32.351562 179.1875 32.351562 M 166.707031 38.8125 C 166.027344 38.8125 165.3125 38.640625 165.074219 38.371094 C 164.496094 37.824219 164.125 37.011719 164.125 35.921875 C 164.125 33.371094 166.027344 32.25 168.035156 32.25 C 169.359375 32.25 170.582031 32.761719 171.738281 33.542969 L 171.738281 36.160156 C 170.414062 37.757812 168.40625 38.8125 166.707031 38.8125 M 180.070312 24.15625 L 179.832031 24.394531 C 179.96875 25.074219 180.273438 25.789062 180.613281 26.367188 L 191.832031 26.367188 L 191.832031 31.332031 L 191.730469 31.367188 C 190.441406 30.449219 188.945312 29.871094 187.277344 29.871094 C 184.386719 29.871094 181.464844 31.636719 181.464844 35.070312 C 181.464844 38.8125 184.863281 41.125 187.71875 41.125 C 188.945312 41.125 190.472656 40.714844 191.730469 39.765625 L 191.832031 39.832031 L 191.832031 44.558594 C 192.582031 44.964844 193.667969 45.273438 194.519531 45.40625 L 194.757812 45.203125 C 194.621094 43.164062 194.589844 41.125 194.589844 38.742188 L 194.589844 37.722656 C 196.96875 35.445312 198.804688 34.492188 200.742188 34.492188 L 201.082031 34.492188 C 203.054688 38.980469 206.25 41.023438 209.617188 41.023438 C 211.011719 41.023438 212.675781 40.613281 213.867188 39.660156 L 213.933594 39.695312 L 213.933594 44.558594 C 214.714844 44.964844 215.769531 45.273438 216.621094 45.40625 L 216.890625 45.203125 C 216.757812 43.164062 216.722656 40.851562 216.722656 38.472656 L 216.722656 26.367188 L 220.5625 26.367188 L 220.800781 26.097656 C 220.664062 25.414062 220.359375 24.703125 220.019531 24.15625 Z M 208.699219 30.480469 C 208.699219 28.953125 207.914062 27.558594 206.894531 26.4375 L 206.894531 26.367188 L 213.933594 26.367188 L 213.933594 35.957031 C 212.777344 37.792969 210.773438 38.640625 209.105469 38.640625 C 206.523438 38.640625 204.71875 37.316406 204.007812 34.664062 C 207.066406 33.8125 208.699219 32.421875 208.699219 30.480469 M 200.0625 32.078125 C 198.363281 32.078125 196.59375 32.691406 194.691406 34.1875 L 194.589844 34.152344 L 194.589844 26.367188 L 204.480469 26.367188 C 205.5 27.488281 205.976562 28.542969 205.976562 29.5625 C 205.976562 31.09375 204.652344 31.875 202.40625 32.523438 C 201.695312 32.25 200.878906 32.078125 200.0625 32.078125 M 186.800781 38.8125 C 186.121094 38.8125 185.511719 38.675781 185.136719 38.335938 C 184.558594 37.824219 184.21875 37.011719 184.21875 35.921875 C 184.21875 33.371094 186.121094 32.25 188.128906 32.25 C 189.453125 32.25 190.679688 32.761719 191.832031 33.542969 L 191.832031 36.160156 C 190.507812 37.757812 188.5 38.8125 186.800781 38.8125 M 235.453125 30.378906 C 235.21875 34.324219 235.21875 38.199219 235.453125 42.074219 C 239.332031 40.308594 242.902344 38.371094 246.265625 36.226562 C 242.867188 34.085938 239.261719 32.046875 235.453125 30.378906 M 257.964844 24.15625 L 257.722656 24.394531 C 257.859375 25.074219 258.164062 25.789062 258.507812 26.367188 L 271.832031 26.367188 L 271.832031 33.914062 L 271.765625 33.914062 C 268.160156 30.789062 266.902344 29.835938 265.167969 29.835938 C 263.675781 29.835938 262.179688 30.617188 259.492188 32.25 C 259.660156 33.101562 260.171875 34.019531 261.15625 34.628906 C 263.4375 33.167969 264.59375 32.421875 265.746094 32.421875 C 266.699219 32.421875 267.582031 32.964844 270.574219 35.480469 L 261.871094 40.613281 C 262.144531 41.601562 262.824219 42.382812 263.640625 42.859375 L 271.765625 37.417969 L 271.832031 37.417969 L 271.832031 44.558594 C 272.617188 44.964844 273.667969 45.273438 274.519531 45.40625 L 274.792969 45.203125 C 274.65625 43.164062 274.621094 40.851562 274.621094 38.472656 L 274.621094 26.367188 L 278.464844 26.367188 L 278.703125 26.097656 C 278.566406 25.414062 278.261719 24.703125 277.953125 24.15625 Z M 285.09375 24.15625 L 284.855469 24.394531 C 284.992188 25.074219 285.296875 25.789062 285.636719 26.367188 L 297.707031 26.367188 L 297.707031 28.78125 L 293.015625 28.78125 C 289.785156 28.78125 287.644531 30.3125 287.644531 32.351562 C 287.644531 33.746094 288.324219 34.9375 289.445312 36.023438 C 288.5625 37.011719 287.984375 38.300781 287.984375 39.96875 C 287.984375 43.910156 291.621094 47.585938 299.984375 49.25 C 300.359375 48.671875 300.460938 48.195312 300.460938 47.3125 C 294.207031 46.054688 290.90625 43.402344 290.90625 40.410156 C 290.90625 37.722656 293.082031 36.125 296.210938 36.125 C 297.199219 36.125 297.910156 36.328125 298.421875 36.738281 C 298.726562 37.042969 298.933594 37.792969 298.964844 38.675781 C 296.925781 38.710938 296.210938 39.527344 296.210938 40.511719 C 296.210938 42.074219 298.488281 44.285156 299.984375 44.285156 C 301.242188 44.285156 301.480469 43.097656 301.550781 41.15625 L 313.179688 41.15625 C 314.539062 41.15625 316.203125 40.75 317.359375 39.796875 L 317.460938 39.867188 L 317.460938 44.695312 C 318.210938 45.101562 319.296875 45.375 320.148438 45.542969 L 320.386719 45.304688 C 320.285156 43.265625 320.25 40.988281 320.25 38.609375 L 320.25 26.367188 L 324.09375 26.367188 L 324.328125 26.097656 C 324.195312 25.414062 323.886719 24.703125 323.546875 24.15625 Z M 295.089844 33.78125 C 293.660156 33.78125 292.199219 34.121094 290.941406 34.835938 C 290.5 34.289062 290.296875 33.746094 290.296875 33.203125 C 290.296875 32.148438 291.28125 31.230469 293.96875 31.230469 L 300.292969 31.230469 L 300.5625 30.992188 C 300.460938 29.632812 300.460938 28.136719 300.460938 26.367188 L 307.875 26.367188 C 308.894531 27.457031 309.507812 28.511719 309.507812 29.664062 C 309.507812 31.46875 307.738281 32.214844 304.8125 32.929688 C 304.574219 33.40625 304.507812 33.914062 304.507812 34.390625 C 305.324219 36.363281 306.34375 37.824219 307.535156 38.914062 L 301.550781 38.710938 C 301.480469 35.753906 298.421875 33.78125 295.089844 33.78125 M 312.566406 38.742188 C 310.082031 38.742188 308.214844 37.484375 307.535156 34.800781 C 310.59375 33.914062 312.191406 32.523438 312.191406 30.585938 C 312.191406 28.984375 311.410156 27.523438 310.355469 26.4375 L 310.355469 26.367188 L 317.460938 26.367188 L 317.460938 36.058594 C 316.304688 37.894531 314.332031 38.742188 312.566406 38.742188 M 330.6875 24.15625 L 330.449219 24.394531 C 330.585938 25.074219 330.890625 25.789062 331.230469 26.367188 L 342.316406 26.367188 L 342.316406 30.039062 L 342.246094 30.039062 C 340.957031 29.121094 339.492188 28.511719 337.828125 28.511719 C 334.972656 28.511719 332.117188 30.242188 332.117188 33.609375 C 332.117188 35.445312 332.964844 36.941406 334.191406 37.996094 C 333 38.914062 332.523438 40.238281 332.523438 41.363281 C 332.523438 44.285156 335.617188 46.664062 338.609375 46.664062 C 339.800781 46.664062 341.160156 46.292969 342.246094 45.339844 L 342.316406 45.375 L 342.316406 49.863281 C 343.097656 50.234375 344.152344 50.542969 345 50.710938 L 345.273438 50.472656 C 345.136719 48.433594 345.105469 46.394531 345.105469 44.015625 L 345.105469 43.164062 C 347.109375 41.191406 348.675781 40.238281 350.238281 40.238281 C 351.53125 40.238281 352.140625 40.988281 352.140625 42.210938 C 352.140625 43.980469 350.78125 45.78125 348.539062 47.378906 C 348.707031 48.09375 349.386719 49.046875 350.203125 49.488281 C 353.058594 47.6875 354.625 45.203125 354.625 42.890625 C 354.625 41.667969 354.078125 40.511719 353.230469 39.59375 C 354.148438 38.335938 354.625 37.011719 354.625 35.683594 C 354.625 34.664062 354.351562 33.746094 353.875 32.964844 L 358.667969 32.964844 C 359.824219 32.964844 360.710938 33.167969 361.117188 33.609375 C 361.289062 33.78125 361.390625 34.050781 361.390625 34.324219 C 361.390625 35.308594 359.929688 36.09375 357.378906 36.398438 C 357.039062 36.804688 356.902344 37.382812 356.867188 37.960938 C 358.328125 41.566406 361.015625 43.539062 364.109375 43.539062 C 365.46875 43.539062 366.695312 43.128906 367.40625 42.621094 L 367.511719 42.652344 L 367.511719 45.476562 C 368.257812 45.851562 369.347656 46.15625 370.195312 46.324219 L 370.433594 46.089844 C 370.296875 44.046875 370.265625 41.769531 370.265625 39.390625 L 370.265625 26.367188 L 374.140625 26.367188 L 374.378906 26.097656 C 374.242188 25.414062 373.9375 24.703125 373.597656 24.15625 Z M 349.421875 30.617188 C 347.824219 30.617188 346.363281 31.367188 345.171875 32.351562 L 345.105469 32.351562 L 345.105469 26.367188 L 367.511719 26.367188 L 367.511719 38.914062 C 366.695312 40.410156 365.265625 41.292969 363.566406 41.292969 C 361.628906 41.292969 360.132812 40.308594 359.722656 38.574219 C 362.207031 38.03125 364.007812 36.839844 364.007812 34.9375 C 364.007812 32.523438 361.660156 30.617188 357.75 30.617188 Z M 337.386719 37.246094 C 336.707031 37.246094 336.09375 37.179688 335.71875 36.875 C 335.109375 36.296875 334.800781 35.277344 334.800781 34.390625 C 334.800781 31.910156 336.773438 30.855469 338.644531 30.855469 C 339.96875 30.855469 341.261719 31.367188 342.316406 32.078125 L 342.316406 34.699219 C 341.023438 36.296875 339.085938 37.246094 337.386719 37.246094 M 337.761719 44.355469 C 337.078125 44.355469 336.5 44.285156 336.09375 43.980469 C 335.550781 43.503906 335.242188 42.6875 335.242188 41.90625 C 335.242188 40.886719 335.820312 39.867188 336.84375 39.390625 C 337.316406 39.492188 337.828125 39.558594 338.304688 39.558594 C 339.492188 39.558594 340.988281 39.152344 342.246094 38.234375 L 342.316406 38.300781 L 342.316406 41.90625 C 341.09375 43.402344 339.460938 44.355469 337.761719 44.355469 M 349.457031 37.824219 C 347.824219 37.824219 346.429688 38.609375 345.171875 39.59375 L 345.105469 39.558594 L 345.105469 35.957031 C 347.144531 33.984375 348.675781 33.03125 350.238281 33.03125 C 351.53125 33.03125 352.140625 33.746094 352.140625 34.96875 C 352.140625 35.988281 351.597656 37.042969 350.746094 38.03125 C 350.339844 37.894531 349.898438 37.824219 349.457031 37.824219 " style=" stroke:none;fill-rule:nonzero;fill:rgb(0%,0%,0%);fill-opacity:1;"/>
</g>
</svg>